<svg xmlns="http://www.w3.org/2000/svg" xmlns:xlink="http://www.w3.org/1999/xlink" width="1080" height="1080" viewBox="0 0 1080 1080">
  <defs>
    <radialGradient id="radial-gradient" cx="0.5" cy="0.5" r="0.5" gradientUnits="objectBoundingBox">
      <stop offset="0" stop-color="#656565"/>
      <stop offset="1" stop-color="#656565" stop-opacity="0"/>
    </radialGradient>
    <linearGradient id="linear-gradient" x1="0.5" y1="1" x2="0.5" gradientUnits="objectBoundingBox">
      <stop offset="0" stop-color="gray" stop-opacity="0.251"/>
      <stop offset="0.54" stop-color="gray" stop-opacity="0.122"/>
      <stop offset="1" stop-color="gray" stop-opacity="0.102"/>
    </linearGradient>
    <linearGradient id="linear-gradient-2" x1="0" y1="0.5" x2="1" y2="0.5" xlink:href="#linear-gradient"/>
    <clipPath id="clip-_2nd_Prize">
      <rect width="1080" height="1080"/>
    </clipPath>
  </defs>
  <g id="_2nd_Prize" data-name="2nd Prize" clip-path="url(#clip-_2nd_Prize)">
    <rect width="1080" height="1080" fill="url(#radial-gradient)"/>
    <text id="_12_000_-" data-name="₹12,000/-" transform="translate(549 831)" fill="#ff8a00" font-size="65" font-family="Montserrat-SemiBold, Montserrat" font-weight="600"><tspan x="-150.215" y="0">₹12,000/-</tspan></text>
    <text id="Not_just" data-name="Not just" transform="translate(549 757)" fill="#fff" font-size="42" font-family="Montserrat-Medium, Montserrat" font-weight="500"><tspan x="-105" y="0">NOT JUST</tspan></text>
    <g id="Group_8" data-name="Group 8" transform="translate(230.457 233.021)">
      <path id="Path_4" data-name="Path 4" d="M907.875,397.214a8.757,8.757,0,0,0-3.837-1.683c-1.47-.338-2.972-.55-4.466-.786l-19.358-2.791a22.8,22.8,0,0,0-5.928-.315,7.524,7.524,0,0,0-5.158,2.673,4.017,4.017,0,0,0-.9,2.516,6.633,6.633,0,0,0,.881,2.61,8.743,8.743,0,0,1,.48,1.156,26.433,26.433,0,0,0,.692,2.634,2.234,2.234,0,0,0,.33.519.854.854,0,0,1,0,.134c-.212,1.085.472,2.217.165,3.263-.267.9-1.14,1.439-1.69,2.186a3.286,3.286,0,0,0-.079,3.625c.59.912,1.659,1.533,1.966,2.579.4,1.376-.684,2.7-1.651,3.766a58.366,58.366,0,0,0-4.922,6.2,3.843,3.843,0,0,0-.786,1.848c-.086,1.368,1.227,2.571,1,3.931-.181,1.069-1.227,1.722-2.131,2.359-3.342,2.2-6.023,5.74-6.29,9.742a34.124,34.124,0,0,0-7.611-17.3,12.37,12.37,0,0,1-2.823-4.427c-.173-.684-.2-1.415-.44-2.076-.786-2.084-3.286-2.98-4.379-4.9-.786-1.352-.786-3.09-1.761-4.277s-2.508-1.455-3.349-2.6a16.646,16.646,0,0,1-1.069-2.422,5.293,5.293,0,0,0-1.455-1.745,4.239,4.239,0,0,0-.362-.259,1.249,1.249,0,0,0,.417-.928c0-.92-.912-1.525-1.706-1.981-1.022-.582-2.021-1.211-3-1.863a7,7,0,0,0,2.681-2.194,7.21,7.21,0,0,0,1.022-4.717,5.953,5.953,0,0,0-1.407-3.609c-.5-.527-1.116-.9-1.635-1.4-1.344-1.313-1.8-3.255-2.359-5.048-.739-2.359-1.9-4.835-4.049-6.086-1.038-.605-2.249-.888-3.263-1.525a2.848,2.848,0,0,1-1.51-3c.236-.786.967-1.329,1.462-2a3.978,3.978,0,0,0-1-5.5c-.582-.369-1.3-.692-1.415-1.368a2.5,2.5,0,0,1-1.824-1.934,7.453,7.453,0,0,1,0-2.8q.307-2.194.605-4.372a2.846,2.846,0,0,0,2.186,0,19.234,19.234,0,0,0,2.359,3.082,30.8,30.8,0,0,1,5.5,9.553c.448,1.258.9,2.665,2.068,3.334.4.228.857.346,1.25.59a4.67,4.67,0,0,1,1.227,1.258c.944,1.25,1.887,2.493,2.823,3.743l.047.189a1.1,1.1,0,0,0,.126.314,1.045,1.045,0,0,0,.676.346c2.893.668,6.141,1.282,8.649-.3,2.264-1.415,3.255-4.214,5.174-6.086,1.36-1.329,3.286-2.359,3.672-4.23a13.922,13.922,0,0,1-1.352-.5c.393-.393.786-.849,1.321-1.368a16.648,16.648,0,0,0,2.091-2.492,16.062,16.062,0,0,0,1.573-3.522q2.272-6.479,4.56-12.965c.723-2.044,1.447-4.1,2.359-6.093.944-2.154,2.06-4.222,3.09-6.337a84.118,84.118,0,0,0,6.117-17.219,6.289,6.289,0,0,0,.244-2.508,6.614,6.614,0,0,0-2.233-3.4,16.387,16.387,0,0,0-3.349-2.775,5.5,5.5,0,0,0-4.2-.676c-2.013.59-3.279,2.65-3.742,4.717a49.45,49.45,0,0,0-.487,6.29c-.283,3.027-1.321,5.952-1.573,8.987-.134,1.753,0,3.53-.212,5.284a19.279,19.279,0,0,1-2.359,6.51A42.142,42.142,0,0,1,843.4,349.308c-.48.4-.975.786-1.447,1.219a7.5,7.5,0,0,1,.1-1.022,6.164,6.164,0,0,0-1,.354,3,3,0,0,0-.118-1.179c-.629-1.879-3.428-2.359-3.931-4.269a8.742,8.742,0,0,1-.134-1.431c-.165-1.675-1.3-3.09-1.7-4.717-.362-1.5-.086-3.145-.786-4.537a12.682,12.682,0,0,0-2.091-2.359,9.254,9.254,0,0,1-1.989-3.75c-.1-.385-.2-.786-.307-1.172a5.363,5.363,0,0,0-.283-2.587c-.715-1.777-2.563-2.917-3.231-4.717-.519-1.4-.291-3.145-1.274-4.23a4.6,4.6,0,0,0-1.863-1.124,41.458,41.458,0,0,0-11.22-2.65c-2.154-.2-4.529-.307-6.07-1.824-1.8-1.761-1.887-4.93-3.994-6.29-1.855-1.2-4.482-.315-5.92,1.376a7.481,7.481,0,0,0-.6.786,8.416,8.416,0,0,1-.165-3.224c0-.267.055-.543.079-.786a15.725,15.725,0,0,0,8.523-6.73v.047l.094.244c.228.574.59,1.124,1.124,1.187h0a1.572,1.572,0,0,0,.975-.354,8.071,8.071,0,0,0,1.3-1.132q.3-.33.566-.684a8.9,8.9,0,0,0,.928-1.572,9.349,9.349,0,0,0,.786-2.634c.142-.912.157-1.848.315-2.76a16.984,16.984,0,0,1,.574-2.084c.079-.228.157-.456.228-.684s.173-.535.252-.786a18.213,18.213,0,0,0,.786-4.985V277.4a8.3,8.3,0,0,0-2.642-5.858c-1.352-1.109-3.145-1.572-4.136-3.074A14.628,14.628,0,0,1,803.988,265a7.863,7.863,0,0,0-6.18-5.559,6.88,6.88,0,0,0-4.891,1.344h0l-.11.086h0a7.865,7.865,0,0,0-1.95,2.17,6.486,6.486,0,0,1-2.768-1.572c-.786-.731-1.392-1.651-2.186-2.359a5.622,5.622,0,0,0-5.6-1.179,6.691,6.691,0,0,0-4,4.584c-.432,1.62-.354,3.483-1.258,4.835-.7,1.054-1.848,1.573-2.65,2.532a4.765,4.765,0,0,0-.991,2.1h0a5.683,5.683,0,0,0-.134,1.313h0a2.4,2.4,0,0,0,.047.582v.094a4.154,4.154,0,0,0,.134.637h0a5.5,5.5,0,0,0,1.172,2.154,5.172,5.172,0,0,0,1.895,1.368,7.68,7.68,0,0,0,.912.291l.936.212.33.079a15.678,15.678,0,0,0-.44,13.846,6.308,6.308,0,0,1-.079.66,54.394,54.394,0,0,0,.409,9.27,4.973,4.973,0,0,1-.574,3.53,6.7,6.7,0,0,1-1.14,1.014c.424-.55.857-1.093,1.3-1.635-1.109-1.116-2.862-1.258-4.435-1.148a20.545,20.545,0,0,0-8.649,2.642c-1.761,1.014-3.57,2.359-5.582,2.123-1.187-.134-2.359-.786-3.514-.472a7.122,7.122,0,0,0-1.8,1.069,2.438,2.438,0,0,1-1.478.456c-1.234-1.517-3.145-2.547-4.623-3.782a36.427,36.427,0,0,1-4.6-4.93c-2.547-3.074-5.087-6.156-7.587-9.262-2.107-2.61-4.269-5.433-4.639-8.775a8.567,8.567,0,0,1-.055-1,25.391,25.391,0,0,1,.6-4.717,2.359,2.359,0,0,0,0-1.14c-.236-.786-1.14-1.077-1.919-1.25h0c.1-.605.173-1.227.212-1.816.44-6.762-.039-13.634,1.392-20.254a13.767,13.767,0,0,1,3.263-6.974c2.87-2.9,7.674-3.6,9.875-7.037,1.84-2.862,1.109-6.911-1.2-9.435a11.908,11.908,0,0,0-9.262-3.428,4.78,4.78,0,0,0-2.7.723,5.731,5.731,0,0,0-1.635,2.485l-3.373,8.2a49.612,49.612,0,0,0-2.469,6.589c-.944,3.444-1.156,7.076-1.9,10.551,0,2.673-1.722,6.007-2.665,8.468-1.054,2.768-2.194,5.5-3.145,8.326-.236.708-1.061,2.807-1.573,4.717a2.876,2.876,0,0,0-.535.4,14.235,14.235,0,0,0-1.116,1.659c-.716.943-1.879,1.447-2.666,2.359s-.951,2.587.142,3.043a3.206,3.206,0,0,0,.684.149,2.664,2.664,0,0,1,.425.071c1.179.33,1.643,1.816,1.47,3.043s-.786,2.359-.888,3.585c-.212,2.17,1.061,4.191,2.288,6.015a51.862,51.862,0,0,0,4.2,5.653c1.109,1.242,2.359,2.359,3.475,3.554,4.254,4.372,7.635,9.482,11.456,14.231a31.548,31.548,0,0,0,4.662,4.891,35.1,35.1,0,0,0,3.53,2.43l6.573,4.167a7.2,7.2,0,0,0,2.485,1.172,3.3,3.3,0,0,0,.881,0c.039.2.071.385.118.582.511,2.06,1.635,3.931,1.761,6.031s-.063,4.246.086,6.369c.141,1.958.574,3.931.684,5.858.22,3.711-.692,7.375-1.573,11.008-1.329,5.315-2.131,10.74-4.718,15.56a9.15,9.15,0,0,0-1.572,4.2,2.17,2.17,0,0,0,.047.55h0l-1.179.668c-.346.2-.692.393-1.006.6-1.494.975-3.09,2.052-3.7,3.735-.5,1.36-.267,2.917-.865,4.238a1.875,1.875,0,0,1-.094.173c-.629,1.227-1.879,2.139-2.162,3.483h0c-.212,1.03.2,2.123,0,3.145v.039a11.366,11.366,0,0,0-.424,1.573,1.877,1.877,0,0,0,.047.519,3,3,0,0,0,.943,1.533,6.292,6.292,0,0,0,.92.731q.5.33,1.038.613l.2.11q.45.236.9.448l.2.086c.354.157.715.3,1.077.425l.252.079c.283.094.574.181.865.252l.2.063.181.039.786.165.291.055q.519.087,1.061.142h.315c.267,0,.527.039.786.047h1.439a8.8,8.8,0,0,0,1.109-.1h.118c.33-.047.66-.1.991-.173l.252-.055c.307-.071.613-.142.92-.236l.165-.047c.37-.11.739-.228,1.1-.37a28.879,28.879,0,0,0,3.632-1.8c.786-.432,1.573-.873,2.359-1.274a18.324,18.324,0,0,1,1.793-.786,10.121,10.121,0,0,1,4.718-.786,18.478,18.478,0,0,1,2.359.48q0,.13,0,.26.959,5.661,1.9,11.322a23.035,23.035,0,0,1,3.255-1.958,7.234,7.234,0,0,0-.417,1.769,7.011,7.011,0,0,0,0,1.407,3.055,3.055,0,0,1-.22,2.162c-.275.362-.786.566-.936.975a3.329,3.329,0,0,0-.079,1.282,2.044,2.044,0,0,1-1.871,1.9,2.988,2.988,0,0,1-1.187,3.507,4.162,4.162,0,0,0-.912.6,2.723,2.723,0,0,0-.527,1.187,21.009,21.009,0,0,1-6.156,10.119A19.79,19.79,0,0,0,756,438.224a13.518,13.518,0,0,0-1.376,2.713q-3.145,7.689-6.384,15.387A34.144,34.144,0,0,0,745.5,465.2c-.943,8.476-8.491,15.662-7.076,24.075a11.8,11.8,0,0,0,2.453,5.748,14.469,14.469,0,0,0,6.29,3.86c6.062,2.359,12.454,3.648,18.823,4.945l10,2.052a43.719,43.719,0,0,0,5.96.944c2.414.165,4.89-.063,7.241.55a22.477,22.477,0,0,0,4.348,1.156c1.289.071,2.878-.2,3.64.849s.173,2.445.9,3.381c1.164,1.486,4,0,5.268,1.4a6.515,6.515,0,0,1,.786,1.738,3.146,3.146,0,0,0,.786.991,6.649,6.649,0,0,1,.094,1.344,23.178,23.178,0,0,1-1.132,5.362q-1.415,4.788-2.823,9.584a21.243,21.243,0,0,0-.786,3.46,8.314,8.314,0,0,0,0,1.714,4.708,4.708,0,0,0,2.823,4.1,5.173,5.173,0,0,0,3.821-.472,16.887,16.887,0,0,0,3.145-2.123,21.469,21.469,0,0,0,4.537-4.67c3.931-5.881,2.658-13.838,5.417-20.34,1.832-4.34,5.4-7.862,6.589-12.438a4.975,4.975,0,0,0,.094-2.689c-.5-1.573-2.17-2.469-3.735-3.035H822.9a32.229,32.229,0,0,0-3.931-1.124c-.33-.071-.668-.126-1.006-.181a6.171,6.171,0,0,1-1.738-2.264,5.263,5.263,0,0,0-.37-1.36,1.415,1.415,0,0,0-1.132-.629c-.786-.079-1.84.2-2.7.141-1.753-.126-2.917-1.848-4.49-2.642s-3.279-.6-4.953-.48a4.584,4.584,0,0,1-1.793-.11,6.742,6.742,0,0,1-1.887-1.3,7.91,7.91,0,0,0-6.927-1.392,7.545,7.545,0,0,1-2.359.535c-1.533-.086-2.618-1.454-3.75-2.492-3.1-2.838-7.509-3.585-11.267-5.449a2.57,2.57,0,0,1-1.352-1.164c-.432-1.069.542-2.138,1.423-2.87l6.463-5.37c7.076-5.881,15.922-10.308,19.208-18.933a10.95,10.95,0,0,1,1.573-3.232,4.386,4.386,0,0,1,.873-.786,6.6,6.6,0,0,1,4.835-.943,16.331,16.331,0,0,1,5.693,2.485q4.222,2.555,8.216,5.5a72.707,72.707,0,0,1,7.509,6.164c4.128,3.931,7.564,8.594,11.408,12.832s8.24,8.193,13.579,10.221,11.794,1.942,16.378-1.462c5.292-3.931,6.99-10.96,8.326-17.408,2.948-2.846,3.837-7.178,5.276-11.007.9-2.43,2.06-4.718,3.035-7.139,1.164-2.846,2.076-5.787,2.988-8.719a41.928,41.928,0,0,0,2.091-9.1c.377-4.9-.936-10.111.44-14.711,1.816-.4,3.467-1.423,5.252-2.021,2.657-.873,5.5-.731,8.318-.715h.181a4.293,4.293,0,0,0,2.768-.653,4.407,4.407,0,0,0,1.14-3.349C910.32,402.544,910.131,399.163,907.875,397.214ZM793.955,263.1a5.841,5.841,0,0,1-1.989.142Z" transform="translate(-291.693 -226.257)" fill="url(#linear-gradient)"/>
      <path id="Path_5" data-name="Path 5" d="M813.411,330.154a8.649,8.649,0,0,1-3.271,1.738l-5.575,2c-3.027,1.085-6.188,2.178-9.38,1.785-1.785-.22-9.435-1.344-10.591-2.736-1.761-2.154,4.411-5.323,6.518-7.139a8.911,8.911,0,0,0,1.321-1.164c.786-.959.684-2.3.574-3.514a54.245,54.245,0,0,1-.409-9.254,18.653,18.653,0,0,1,.315-2.194c.786-3.617,4.151-2.3,6.809-1.337a53.246,53.246,0,0,1,9.239,4,6.627,6.627,0,0,1,2.28,1.934c1.164,1.761.7,4.073.511,6.29-.165,1.722-.157,3.373.92,4.623a11.922,11.922,0,0,1,1.486,1.572,2.948,2.948,0,0,1-.747,3.4Z" transform="translate(-308.052 -243.577)" fill="#be6f72"/>
      <path id="Path_6" data-name="Path 6" d="M721.28,256.581c.786-3.483.959-7.076,1.9-10.528a49.3,49.3,0,0,1,2.469-6.565l3.467-8.09a5.707,5.707,0,0,1,1.635-2.477,4.843,4.843,0,0,1,2.7-.723,12.015,12.015,0,0,1,9.262,3.42c2.312,2.492,3.043,6.526,1.2,9.38-2.2,3.436-7.005,4.128-9.875,7.021a13.746,13.746,0,0,0-3.263,6.958c-1.431,6.6-.951,13.453-1.392,20.2-.141,2.1-.55,4.5-2.359,5.582a6.88,6.88,0,0,1-3.522.684l-5.158.086c-.865,0-4,.543-4.576-.11-1.006-1.14,1.289-6.817,1.706-8.083.928-2.807,2.068-5.543,3.145-8.3C719.558,262.572,721.28,259.246,721.28,256.581Z" transform="translate(-292.926 -226.67)" fill="#be6f72"/>
      <path id="Path_7" data-name="Path 7" d="M851.67,576.532c-1.187,4.544-4.757,8.083-6.589,12.415-2.76,6.487-1.518,14.42-5.417,20.285a21.433,21.433,0,0,1-4.537,4.678,16.842,16.842,0,0,1-3.145,2.115,5.173,5.173,0,0,1-3.821.472,4.706,4.706,0,0,1-2.823-4.089,8.254,8.254,0,0,1,0-1.706,21.145,21.145,0,0,1,.786-3.452q1.415-4.773,2.823-9.561a23.144,23.144,0,0,0,1.132-5.346c.1-1.981-1.156-4.56-.621-6.408.244-.833,1.156-1.573,1.572-2.272a13.151,13.151,0,0,0,1.352-3.216c.645-2.194,1.085-4.537,2.437-6.384a14.983,14.983,0,0,1,3.066-2.87,8.13,8.13,0,0,1,2.925-1.643,7.164,7.164,0,0,1,3.145.149,30.878,30.878,0,0,1,3.931,1.116h.071c1.573.566,3.239,1.439,3.735,3.027A4.944,4.944,0,0,1,851.67,576.532Z" transform="translate(-316.818 -299.613)" fill="#3f3d56"/>
      <path id="Path_8" data-name="Path 8" d="M953.824,451.742c-.047,1.219-.2,2.579-1.14,3.342a4.292,4.292,0,0,1-2.768.653H949.7c-2.807,0-5.661-.157-8.318.715-2.021.668-3.876,1.895-5.983,2.139-2.9.33-5.63-1.258-8.2-2.642a81.561,81.561,0,0,0-7.446-3.538c-1.667-.684-5.071-1.124-5.873-2.948a26.838,26.838,0,0,1-.692-2.626,8.733,8.733,0,0,0-.48-1.156,6.644,6.644,0,0,1-.881-2.6,4.017,4.017,0,0,1,.9-2.516,7.54,7.54,0,0,1,5.15-2.65,22.8,22.8,0,0,1,5.928.314l19.357,2.783a45.316,45.316,0,0,1,4.466.786,8.759,8.759,0,0,1,3.837,1.683C953.753,445.4,953.942,448.77,953.824,451.742Z" transform="translate(-335.315 -271.484)" fill="#3f3d56"/>
      <path id="Path_9" data-name="Path 9" d="M901.464,458.615c-2.359,4.977-.661,10.866-1.085,16.37a41.735,41.735,0,0,1-2.091,9.073c-.912,2.925-1.824,5.858-2.988,8.7-.975,2.359-2.131,4.717-3.035,7.123-1.439,3.837-2.359,8.153-5.276,11.007-1.337,6.432-3.035,13.461-8.326,17.36-4.6,3.4-11.008,3.515-16.378,1.462s-9.734-5.983-13.579-10.221-7.281-8.853-11.408-12.8a71.544,71.544,0,0,0-7.524-6.156q-3.994-2.9-8.216-5.457a16.457,16.457,0,0,0-5.692-2.477,6.6,6.6,0,0,0-4.835.944,4.387,4.387,0,0,0-.873.786,10.817,10.817,0,0,0-1.573,3.224c-3.3,8.6-12.163,13.02-19.239,18.886l-6.463,5.354c-.881.731-1.856,1.8-1.423,2.862a2.571,2.571,0,0,0,1.352,1.164c3.758,1.856,8.169,2.6,11.267,5.433,1.132,1.038,2.217,2.406,3.75,2.485a7.535,7.535,0,0,0,2.359-.527,7.933,7.933,0,0,1,6.927,1.384,6.737,6.737,0,0,0,1.887,1.3,4.585,4.585,0,0,0,1.793.11,9.57,9.57,0,0,1,4.953.48c1.5.747,2.736,2.508,4.49,2.634.857.063,1.879-.22,2.7-.142a1.415,1.415,0,0,1,1.132.629,5.209,5.209,0,0,1,.369,1.352c.322,1.109,1.407,1.785,2.115,2.7a7.45,7.45,0,0,1,1.132,5.071,21.637,21.637,0,0,1-6.888,14.483,8.523,8.523,0,0,1-4.238,2.359,3.931,3.931,0,0,1-4.2-1.863,6.458,6.458,0,0,0-.786-1.73c-1.266-1.392-4.1.087-5.268-1.4-.723-.928-.2-2.414-.9-3.373s-2.359-.786-3.64-.841a23.064,23.064,0,0,1-4.348-1.156c-2.359-.613-4.828-.385-7.241-.55a43.7,43.7,0,0,1-5.96-.944l-10-2.044c-6.369-1.3-12.761-2.61-18.823-4.93a15.147,15.147,0,0,1-6.29-3.853,11.793,11.793,0,0,1-2.453-5.74c-1.423-8.389,6.125-15.56,7.076-24.012a33.686,33.686,0,0,1,2.736-8.853q3.2-7.674,6.384-15.356a13.681,13.681,0,0,1,1.337-2.72,19.74,19.74,0,0,1,3.043-2.964,20.939,20.939,0,0,0,6.156-10.1,2.717,2.717,0,0,1,.527-1.187,4.419,4.419,0,0,1,.912-.59,2.988,2.988,0,0,0,1.187-3.5,2.044,2.044,0,0,0,1.871-1.9,3.285,3.285,0,0,1,.079-1.274c.189-.409.66-.613.936-.975a3.037,3.037,0,0,0,.22-2.154,7.029,7.029,0,0,1,0-1.407,7.226,7.226,0,0,1,2.107-4.4c1.879-1.848,4.552-1.368,7.147-1.808a40.94,40.94,0,0,0,7.548-2.414,74.154,74.154,0,0,1,21.315-4.93,46.538,46.538,0,0,1,21.528,3.428,12.245,12.245,0,0,1,2.775,1.572,5.261,5.261,0,0,1,1.454,1.738,16.208,16.208,0,0,0,1.069,2.414c.841,1.148,2.43,1.517,3.349,2.6s1,2.917,1.761,4.261c1.093,1.918,3.625,2.807,4.379,4.89.236.66.267,1.384.44,2.068.425,1.714,1.7,3.066,2.823,4.419a33.974,33.974,0,0,1,7.611,17.3c.252-3.986,2.933-7.517,6.29-9.718.9-.59,1.95-1.242,2.131-2.312.228-1.352-1.085-2.555-1-3.931a3.853,3.853,0,0,1,.786-1.84,58.2,58.2,0,0,1,4.922-6.188c.967-1.061,2.052-2.359,1.651-3.758-.307-1.046-1.376-1.659-1.966-2.571a3.271,3.271,0,0,1,.078-3.617c.55-.747,1.423-1.289,1.691-2.178.307-1.046-.377-2.178-.165-3.255a4.026,4.026,0,0,1,1.62-2.1,13.465,13.465,0,0,1,3.515-2.312c2.076-.786,4.387-.5,6.589-.189,3.68.511,7.808,1.3,9.883,4.379C901.779,453.63,902.455,456.555,901.464,458.615Z" transform="translate(-299.97 -273.325)" fill="#65617d"/>
      <path id="Path_10" data-name="Path 10" d="M953.817,451.742c-.047,1.219-.2,2.579-1.14,3.342a4.293,4.293,0,0,1-2.768.653H949.7c.322-1.635,2.312-2.571,2.657-4.23a3.743,3.743,0,0,0-.865-2.854c-1.683-2.272-4.387-3.53-7.076-4.45a46.877,46.877,0,0,0-23.635-1.769,23.8,23.8,0,0,0-6.211,1.911,20.241,20.241,0,0,0-1.887,1.337,6.645,6.645,0,0,1-.88-2.6,4.019,4.019,0,0,1,.9-2.516,7.54,7.54,0,0,1,5.15-2.65,22.8,22.8,0,0,1,5.928.314l19.357,2.783a45.332,45.332,0,0,1,4.466.786,8.758,8.758,0,0,1,3.837,1.683C953.746,445.4,953.935,448.769,953.817,451.742Z" transform="translate(-335.308 -271.484)" opacity="0.1"/>
      <path id="Path_11" data-name="Path 11" d="M851.67,576.913c-1.187,4.545-4.757,8.083-6.589,12.415-2.76,6.487-1.518,14.42-5.417,20.285a21.429,21.429,0,0,1-4.537,4.678,16.845,16.845,0,0,1-3.145,2.115,5.173,5.173,0,0,1-3.821.472,4.706,4.706,0,0,1-2.823-4.089,8.254,8.254,0,0,1,0-1.706l.047.126c.684,1.651,1.8,3.381,3.562,3.672a4.82,4.82,0,0,0,3.632-1.282c2.595-2.084,4.1-5.189,5.543-8.185a34.057,34.057,0,0,0,2.658-6.785c.314-1.337.464-2.7.786-4.041,1.494-6.494,6.581-11.794,7.705-18.375a4.5,4.5,0,0,0,.063-1.376,6.957,6.957,0,0,0-.676-1.714,8.492,8.492,0,0,1-.6-1.9c1.572.566,3.239,1.439,3.735,3.027a4.945,4.945,0,0,1-.126,2.665Z" transform="translate(-316.818 -299.993)" opacity="0.1"/>
      <path id="Path_12" data-name="Path 12" d="M830.269,551.626a11.392,11.392,0,0,1-3.546,4.843,17.3,17.3,0,0,1-7.635,3.3,7.6,7.6,0,0,1-3.931-.047c-1.745-.6-3-2.241-4.788-2.713-1.274-.346-2.642-.039-3.931-.228-2.319-.322-4.12-2.091-5.991-3.507-5.732-4.309-13.256-5.7-18.988-10.009a1.763,1.763,0,0,1-.613-.637,1.893,1.893,0,0,1-.118-.889,18.08,18.08,0,0,1,1.722-7.556,26.357,26.357,0,0,1,3.239-4.615c5.134-6.29,10.292-12.627,16.441-17.934a24.91,24.91,0,0,1,8.649-5.307c1.808-.558,5.378-1.085,7.579-.142a4.385,4.385,0,0,0-.873.786,10.819,10.819,0,0,0-1.573,3.224c-3.31,8.609-12.171,13.028-19.247,18.894l-6.463,5.354c-.881.731-1.856,1.8-1.423,2.862a2.571,2.571,0,0,0,1.352,1.164c3.758,1.856,8.169,2.6,11.267,5.433,1.132,1.038,2.217,2.406,3.75,2.484a7.531,7.531,0,0,0,2.359-.527,7.933,7.933,0,0,1,6.927,1.384,6.737,6.737,0,0,0,1.887,1.3,4.585,4.585,0,0,0,1.793.11,9.57,9.57,0,0,1,4.953.479c1.5.747,2.736,2.508,4.489,2.634C828.429,551.831,829.451,551.532,830.269,551.626Z" transform="translate(-307.289 -285.982)" opacity="0.1"/>
      <path id="Path_13" data-name="Path 13" d="M749.794,420.583c-1.494.959-3.082,2.044-3.7,3.711-.5,1.36-.267,2.917-.873,4.238s-1.966,2.241-2.264,3.656c-.212,1.03.2,2.115,0,3.145a13.546,13.546,0,0,0-.433,1.635c-.078,1.171.928,2.123,1.911,2.775a15.961,15.961,0,0,0,14.286,1.573,64.533,64.533,0,0,0,6.007-3.074,11.879,11.879,0,0,1,6.471-1.572c1.3.141,2.54.613,3.837.786a4.025,4.025,0,0,0,3.593-1.069,4.482,4.482,0,0,0,.786-1.863c1.093-4.316.6-8.893-.44-13.233s-2.61-8.515-3.719-12.832a58.884,58.884,0,0,0-2.7-9.506c-1.313-3.027-3.522-5.842-6.612-7a1.234,1.234,0,0,0-.786-.1,1.336,1.336,0,0,0-.511.377,24.175,24.175,0,0,0-5.394,9.073c-1.234,3.766-1.573,7.76-2.7,11.542-.487,1.573-1.116,3.68-2.359,4.883A26.952,26.952,0,0,1,749.794,420.583Z" transform="translate(-299.126 -261.648)" fill="#3f3d56"/>
      <path id="Path_14" data-name="Path 14" d="M779.448,434.484a4.586,4.586,0,0,1-.826,1.863,3.987,3.987,0,0,1-3.593,1.062c-1.289-.157-2.532-.637-3.829-.786a11.856,11.856,0,0,0-6.471,1.573c-2.013,1.006-3.931,2.256-6.015,3.066a15.874,15.874,0,0,1-9.537.543,15.388,15.388,0,0,1-4.717-2.076c-.991-.645-1.989-1.573-1.911-2.776a13.445,13.445,0,0,1,.432-1.628c.2-1.03-.2-2.115,0-3.145.3-1.415,1.667-2.359,2.264-3.664s.37-2.87.865-4.23c.613-1.675,2.209-2.752,3.7-3.719s3.271-1.706,4.466-2.878a4.434,4.434,0,0,0,.417-.582,14.159,14.159,0,0,0,1.871-4.332c1.156-3.79,1.47-7.776,2.7-11.55a24.224,24.224,0,0,1,5.4-9.066,1.187,1.187,0,0,1,.5-.377,1.258,1.258,0,0,1,.786.094c3.082,1.164,5.292,3.978,6.612,7.006s1.879,6.29,2.7,9.5c1.1,4.316,2.681,8.507,3.719,12.839S780.541,430.16,779.448,434.484Z" transform="translate(-299.13 -261.633)" opacity="0.1"/>
      <path id="Path_15" data-name="Path 15" d="M814.013,320.544A15.725,15.725,0,0,1,794.86,311.9a18.666,18.666,0,0,1,.315-2.194c.786-3.617,4.151-2.3,6.809-1.337a53.246,53.246,0,0,1,9.238,4,6.625,6.625,0,0,1,2.28,1.934C814.666,316.039,814.2,318.351,814.013,320.544Z" transform="translate(-310.312 -243.584)" opacity="0.1"/>
      <circle id="Ellipse_20" data-name="Ellipse 20" cx="15.725" cy="15.725" r="15.725" transform="translate(483.227 45.463)" fill="#be6f72"/>
      <path id="Path_16" data-name="Path 16" d="M850.468,452.032c0,1.3-1.769,1.722-3.082,1.651-4.717-.275-9.333-1.573-14-1.179-5.9.535-11.33,3.8-17.25,4.1-2.28.118-4.6-.22-6.848.2-2.909.543-5.5,2.312-8.468,2.563-2.571.22-5.111-.747-7.682-.645A12.345,12.345,0,0,0,788,460.177a7.225,7.225,0,0,1,2.107-4.4c1.879-1.848,4.552-1.368,7.147-1.808a40.944,40.944,0,0,0,7.548-2.414,74.15,74.15,0,0,1,21.315-4.93,46.537,46.537,0,0,1,21.52,3.4,12.245,12.245,0,0,1,2.776,1.572,1.235,1.235,0,0,1,.055.425Z" transform="translate(-308.846 -273.331)" opacity="0.1"/>
      <path id="Path_17" data-name="Path 17" d="M796.979,338.553l-6.369-2.359-2.689-.991a13,13,0,0,0-3.428-.912c-3.082-.236-5.983,1.816-7.627,4.434s-2.264,5.74-2.791,8.782q-1.085,6.243-1.84,12.533a81.847,81.847,0,0,0-.826,11.432c.181,9.734,2.241,19.334,4.505,28.808a101.307,101.307,0,0,1,2.508,12.777c.189,1.777.275,3.562.464,5.346.2,2,.535,3.986.865,5.976l1.9,11.3c2.359-1.675,5.04-3.145,7.941-3.232,2.571-.094,5.118.865,7.682.645,2.948-.244,5.559-2.013,8.468-2.555,2.249-.417,4.568-.087,6.856-.2,5.913-.3,11.346-3.57,17.242-4.1,4.678-.425,9.325.9,14.011,1.171,1.3.079,3.074-.338,3.074-1.651,0-.912-.912-1.517-1.706-1.973a84.132,84.132,0,0,1-10.654-7.6c-3.1-2.453-6.243-4.969-8.374-8.287-5.134-7.98-3.373-18.776-7.752-27.2-3.562-6.84,0-15.8,0-23.517a35.774,35.774,0,0,0-3.011-17.6l-3.059-7.745a1.265,1.265,0,0,0-.362-.59,1.2,1.2,0,0,0-.7-.212,7.375,7.375,0,0,0-5.079,1.628c-1.439,1.172-2.359,2.854-3.774,4.073C800.9,338.081,798.905,339.261,796.979,338.553Z" transform="translate(-305.3 -248.651)" fill="#e3e8f4"/>
      <path id="Path_18" data-name="Path 18" d="M814.863,332.745c.5-2.154,1.046-4.4,2.484-6.078s4.065-2.571,5.921-1.368c2.107,1.368,2.194,4.529,3.994,6.29,1.573,1.51,3.931,1.628,6.07,1.824a41.162,41.162,0,0,1,11.22,2.642,4.584,4.584,0,0,1,1.863,1.116c.983,1.116.786,2.831,1.274,4.222.668,1.793,2.516,2.933,3.231,4.717.786,1.981,0,4.2-.66,6.235-1.187,3.656-1.934,7.454-3.09,11.125a24.768,24.768,0,0,1-5.5,10.056c-1.2,1.227-2.972,2.359-4.545,1.628l-.6,4.364a7.412,7.412,0,0,0,0,2.791,2.5,2.5,0,0,0,1.824,1.934c.118.676.833,1,1.415,1.368a3.931,3.931,0,0,1,1,5.5c-.5.668-1.227,1.2-1.462,1.989a2.826,2.826,0,0,0,1.509,2.988c1.022.629,2.225.92,3.263,1.525,2.154,1.242,3.31,3.688,4.049,6.062.55,1.793,1.006,3.735,2.359,5.04.519.5,1.14.873,1.635,1.392a5.967,5.967,0,0,1,1.407,3.609,7.163,7.163,0,0,1-1.022,4.717c-1.573,2.249-4.505,2.917-7.076,3.931-4.175,1.714-7.611,4.78-11.291,7.391a12.045,12.045,0,0,1-5.15,2.422c-2.547.338-5.056-.786-7.619-.888a18.915,18.915,0,0,0-4.545.6l-4.718,1.022c.252-3.656-1.761-7.32-2.886-10.8a53.684,53.684,0,0,1-2.013-20.442,160.132,160.132,0,0,1,3.287-20.4c.967-4.717.873-9.647,2.359-14.231,1.392-4.411,3.381-8.649,4.112-13.24C818.149,346.371,813.18,340.073,814.863,332.745Z" transform="translate(-312.907 -247.309)" fill="#3f3d56"/>
      <path id="Path_19" data-name="Path 19" d="M859.239,353.107a8.652,8.652,0,0,1,.9,2.555,9.224,9.224,0,0,0,1.989,3.742,12.885,12.885,0,0,1,2.091,2.359c.723,1.368.448,3.035.786,4.529.393,1.628,1.533,3.043,1.7,4.718a8.642,8.642,0,0,0,.134,1.431c.511,1.9,3.31,2.359,3.931,4.261.417,1.234-.3,2.579-.165,3.876a3.413,3.413,0,0,1,.071,1.227,2.492,2.492,0,0,1-.9,1.148,18.083,18.083,0,0,0-5.173,9.207,52.431,52.431,0,0,0-1.187,10.638l-3.074-4.065a4.671,4.671,0,0,0-1.227-1.258c-.393-.236-.849-.354-1.25-.59-1.164-.66-1.62-2.06-2.068-3.318a30.667,30.667,0,0,0-5.5-9.529c-1.25-1.47-2.7-2.948-2.98-4.859a8.948,8.948,0,0,1,.142-2.626c.786-5.15,1.627-10.426,4.136-14.994,1.171-2.139,2.689-4.073,3.813-6.243C856.165,353.877,857.226,350.134,859.239,353.107Z" transform="translate(-321.517 -253.133)" fill="#3f3d56"/>
      <path id="Path_20" data-name="Path 20" d="M751.85,344.677a3.594,3.594,0,0,1-.488,1.887,2.484,2.484,0,0,1-2.484.786,7.188,7.188,0,0,1-2.485-1.164q-3.286-2.076-6.573-4.159a36.411,36.411,0,0,1-3.53-2.422,31.509,31.509,0,0,1-4.662-4.883c-3.821-4.717-7.2-9.836-11.456-14.152-1.156-1.179-2.359-2.312-3.475-3.546a51.77,51.77,0,0,1-4.2-5.645c-1.227-1.816-2.5-3.829-2.288-6,.126-1.227.715-2.359.888-3.577s-.291-2.7-1.47-3.035a2.65,2.65,0,0,0-.425-.071,3.209,3.209,0,0,1-.684-.149c-1.093-.456-.928-2.146-.141-3.035s1.95-1.384,2.665-2.359a14.235,14.235,0,0,1,1.116-1.659,4.255,4.255,0,0,1,1.832-.92,28.354,28.354,0,0,1,13.956-.527c.786.173,1.683.487,1.918,1.25a2.3,2.3,0,0,1,0,1.132,25.318,25.318,0,0,0-.6,4.718,8.335,8.335,0,0,0,.055.991c.369,3.334,2.532,6.156,4.639,8.759,2.5,3.1,5.04,6.172,7.587,9.238a36.3,36.3,0,0,0,4.6,4.914c1.573,1.3,3.609,2.359,4.836,4.033,1,1.352.676,3.2.786,4.828A107.188,107.188,0,0,1,751.85,344.677Z" transform="translate(-291.691 -239.758)" fill="#3f3d56"/>
      <path id="Path_21" data-name="Path 21" d="M887.281,385.68a12.694,12.694,0,0,0,3.664-5.991l4.56-12.934c.723-2.044,1.447-4.1,2.359-6.086.943-2.146,2.06-4.214,3.09-6.29a83.9,83.9,0,0,0,6.109-17.1,6.337,6.337,0,0,0,.244-2.508,6.593,6.593,0,0,0-2.233-3.389,16.347,16.347,0,0,0-3.349-2.768,5.5,5.5,0,0,0-4.2-.676c-2.013.59-3.279,2.65-3.742,4.717a49.272,49.272,0,0,0-.488,6.29c-.283,3.019-1.321,5.936-1.572,8.963-.134,1.753,0,3.522-.212,5.268a19.237,19.237,0,0,1-2.359,6.5,42.215,42.215,0,0,1-10.166,12.5,16.348,16.348,0,0,0-3.051,2.933,9.567,9.567,0,0,0-1.47,3.664,8.436,8.436,0,0,0,.637,5.952c1.282,2.186,3.743,3.145,6.093,3.632C884.372,389.022,885.1,387.937,887.281,385.68Z" transform="translate(-327.269 -247.959)" fill="#be6f72"/>
      <path id="Path_22" data-name="Path 22" d="M808.02,273.565a7.336,7.336,0,0,1,7.123-3.861,7.863,7.863,0,0,1,6.18,5.551,14.337,14.337,0,0,0,1.164,3.475c.975,1.517,2.783,1.958,4.136,3.059a8.28,8.28,0,0,1,2.642,5.85,17.7,17.7,0,0,1-1.046,6.612,21.019,21.019,0,0,0-.786,2.768c-.157.912-.173,1.84-.315,2.752a8.963,8.963,0,0,1-3.609,5.952,1.573,1.573,0,0,1-.975.354c-.613-.071-.991-.786-1.219-1.431-1.25-3.609-.951-8.02-3.255-10.9a11.913,11.913,0,0,0-3.727-2.775,4.8,4.8,0,0,0-1.9-.715,5.008,5.008,0,0,0-2.752,1.006,17.134,17.134,0,0,1-5.441,2.406,6.683,6.683,0,0,1-5.622-1.211c-1.085-.9-1.879-2.241-3.082-2.941s-2.461-.66-3.648-1.14a5.4,5.4,0,0,1-2.186-8.24c.786-.944,1.95-1.478,2.65-2.524.9-1.352.826-3.208,1.258-4.828a6.644,6.644,0,0,1,4-4.568,5.622,5.622,0,0,1,5.6,1.172c.786.708,1.415,1.62,2.186,2.359a6.29,6.29,0,0,0,5.818,1.573" transform="translate(-308.974 -235.163)" fill="#3f3d56"/>
      <path id="Path_23" data-name="Path 23" d="M829.462,421.522a3.051,3.051,0,0,0-.833,3.334c.173.37,8.287-1.2,9.144-1.313,2.139-.307,5.889-.157,7.328-2.115,2.563-3.467-5.378-2.7-6.833-2.571C835.5,419.092,831.569,419.47,829.462,421.522Z" transform="translate(-317.49 -267.391)" opacity="0.1"/>
      <path id="Path_24" data-name="Path 24" d="M729.865,292.463a25.318,25.318,0,0,0-.6,4.717c-2.359.48-4.812-.307-7.076-1.093l-6.5-2.217a1.848,1.848,0,0,0-2.485.464,55.049,55.049,0,0,1-3.931,4.364,3.208,3.208,0,0,1-.684-.149c-1.093-.456-.928-2.146-.142-3.035s1.95-1.384,2.665-2.359a14.2,14.2,0,0,1,1.116-1.659,4.254,4.254,0,0,1,1.832-.92,28.353,28.353,0,0,1,13.956-.527c.786.173,1.683.487,1.918,1.25a2.3,2.3,0,0,1-.069,1.164Z" transform="translate(-291.706 -239.758)" fill="#3f3d56"/>
      <path id="Path_25" data-name="Path 25" d="M729.865,292.463a25.318,25.318,0,0,0-.6,4.717c-2.359.48-4.812-.307-7.076-1.093l-6.5-2.217a1.848,1.848,0,0,0-2.485.464,55.049,55.049,0,0,1-3.931,4.364,3.208,3.208,0,0,1-.684-.149c-1.093-.456-.928-2.146-.142-3.035s1.95-1.384,2.665-2.359a14.2,14.2,0,0,1,1.116-1.659,4.254,4.254,0,0,1,1.832-.92,28.353,28.353,0,0,1,13.956-.527c.786.173,1.683.487,1.918,1.25a2.3,2.3,0,0,1-.069,1.164Z" transform="translate(-291.706 -239.758)" opacity="0.1"/>
      <path id="Path_26" data-name="Path 26" d="M807.272,482.3c1.132.377,2.359.928,2.744,2.06l-9.1-2.312-4.718-1.2c-.833-.212-3.821-.456-4.372-1.109-.786-.959,2-.3,2.508-.228,1.525.228,3.051.464,4.568.739C801.761,480.762,804.512,481.6,807.272,482.3Z" transform="translate(-309.634 -280.329)" opacity="0.1"/>
      <path id="Path_27" data-name="Path 27" d="M810.833,491.666c-.786-.527-3.043-.464-4.01-.692-1.415-.338-2.807-.786-4.2-1.219-2.823-.92-5.622-1.966-8.523-2.642-.535-.118-2.359-.149-2.272-.826s1.824-.912,2.256-.943c2.571-.189,5.779,1.014,8.169,1.871a36.012,36.012,0,0,1,8.58,4.451Z" transform="translate(-309.664 -281.633)" opacity="0.1"/>
      <path id="Path_28" data-name="Path 28" d="M805.578,472.681c-2.885-.786-5.5-2.579-8.476-2.925a3.444,3.444,0,0,1-2.162-.66,2.548,2.548,0,0,1-.7-1.258,14.649,14.649,0,0,1,6.109,1.533,19.225,19.225,0,0,1,2.862,1.525C803.872,471.3,804.862,472.453,805.578,472.681Z" transform="translate(-310.18 -277.893)" opacity="0.1"/>
      <path id="Path_29" data-name="Path 29" d="M875.971,384.46a13.752,13.752,0,0,0,9.639,15.2c-.385,1.863-2.312,2.893-3.672,4.222-1.918,1.863-2.909,4.655-5.174,6.07-2.524,1.572-5.771.959-8.649.3a1.054,1.054,0,0,1-.676-.354.966.966,0,0,1-.126-.307c-.951-3.483-1.573-7.2-.6-10.693.786-2.972,2.673-5.5,4.183-8.13S872.55,385.325,875.971,384.46Z" transform="translate(-325.567 -260.073)" fill="#3f3d56"/>
      <path id="Path_30" data-name="Path 30" d="M779.246,327.113a20.442,20.442,0,0,0-8.649,2.634c-1.761,1.006-3.57,2.359-5.582,2.115-1.187-.134-2.359-.786-3.514-.472a6.9,6.9,0,0,0-1.8,1.069,2.037,2.037,0,0,1-1.981.315l-.786,10.882c-.3,4.136-.59,8.358.4,12.391.511,2.06,1.635,3.931,1.761,6.023s-.063,4.238.086,6.353c.142,1.958.574,3.884.684,5.842.22,3.7-.692,7.359-1.573,10.952-1.329,5.3-2.131,10.717-4.717,15.513A9.151,9.151,0,0,0,752,404.92a2.137,2.137,0,0,0,.047.55c-.786.432-1.518.841-2.186,1.266-1.494.967-3.09,2.044-3.7,3.719-.5,1.36-.267,2.917-.865,4.23s-1.966,2.249-2.264,3.664c-.212,1.03.2,2.115,0,3.145a13.454,13.454,0,0,0-.432,1.628c-.079,1.179.92,2.131,1.911,2.775a15.383,15.383,0,0,0,4.717,2.076l4.694-18.634h0A150.243,150.243,0,0,0,764.559,384.6a53.2,53.2,0,0,1,3.074-8.146,38.282,38.282,0,0,0,2.359-4.623,34.828,34.828,0,0,0,1.132-6.219,43.519,43.519,0,0,1,1.848-7.178,30.806,30.806,0,0,0,2-7.69c.26-3.79-1.116-7.792.346-11.3a15.029,15.029,0,0,1,2.4-3.609c2.029-2.485,3.876-5.087,5.9-7.572C782.572,327.137,780.818,327.019,779.246,327.113Z" transform="translate(-299.141 -247.81)" fill="#3f3d56"/>
      <g id="Group_6" data-name="Group 6" transform="translate(479.65 35.816)" opacity="0.1">
        <path id="Path_31" data-name="Path 31" d="M817.093,271.81l-.983.071-.11.079a5.8,5.8,0,0,0,1.093-.149Z" transform="translate(-794.481 -271.81)"/>
        <path id="Path_32" data-name="Path 32" d="M829.232,291.187a21.192,21.192,0,0,1-1.006,4.592,21.025,21.025,0,0,0-.786,2.768c-.157.912-.173,1.84-.315,2.752a8.964,8.964,0,0,1-3.609,5.952,1.572,1.572,0,0,1-.975.354c-.613-.071-.991-.786-1.219-1.431-1.25-3.609-.951-8.02-3.255-10.9a11.908,11.908,0,0,0-3.727-2.775,4.8,4.8,0,0,0-1.9-.715,5.008,5.008,0,0,0-2.752,1.006,17.131,17.131,0,0,1-5.441,2.406,6.683,6.683,0,0,1-5.622-1.211c-1.085-.9-1.879-2.241-3.082-2.941s-2.461-.66-3.648-1.14a5.37,5.37,0,0,1-3.066-3.507,2.226,2.226,0,0,1-.063-.3,5.5,5.5,0,0,0,.063,2.658,5.37,5.37,0,0,0,3.066,3.507c1.187.48,2.524.487,3.648,1.14s2,2.044,3.082,2.941a6.683,6.683,0,0,0,5.622,1.211,17.133,17.133,0,0,0,5.441-2.406,5.009,5.009,0,0,1,2.752-1.006,4.8,4.8,0,0,1,1.9.716,11.911,11.911,0,0,1,3.672,2.8c2.3,2.878,2,7.289,3.255,10.9.228.653.6,1.36,1.219,1.431a1.573,1.573,0,0,0,1.03-.377,8.964,8.964,0,0,0,3.617-5.976c.142-.912.157-1.84.315-2.752a21.037,21.037,0,0,1,.786-2.768,17.7,17.7,0,0,0,1.046-6.612C829.264,291.407,829.248,291.3,829.232,291.187Z" transform="translate(-788.631 -274.865)"/>
      </g>
      <path id="Path_47" data-name="Path 47" d="M352.53,431.115c-1.816-.605-12.509-9.065-13.319-12.895s5.653-39.5,5.653-39.5a14.524,14.524,0,0,1-1.572-.118v-.574l1.329-46.86s5.449-31.45-4.843-29.618-3.837,29.618-3.837,29.618-1.172,14.105-2,18.335c-.786,4.081-4.387,20.7-1.934,25.868a5.631,5.631,0,0,0,.3.535h0s.409,17.73-4.033,20.152c-4.238,2.3-6,13.9-6.148,14.939l-.228-.094h0a12.319,12.319,0,0,1-3.279-3c-.094-.118-.165-.244-.252-.37a17.316,17.316,0,0,0-5.331-27.039,11.165,11.165,0,0,0-1.046-4.34c-2.044-4.372-13.366-10.088-21.41-10.221-3.711-.11-6.754.944-7.862,3.845-.566,1.47-.393,3.145-.629,4.67-.472,3.145-2.492,5.606-5.087,7.564a31.888,31.888,0,0,0-3.389-3.263c-2.626-2.013-7.862-8.649-7.862-8.649s-16.346-16.928-17.557-21.567-17.541-32.5-21.174-27.645,12.509,25.993,12.509,25.993,3.066,7.682,5.425,10.276S265.4,386.016,265.4,386.016l.865,1.793c-3.821,2.013-7.312,4.576-8.547,8.57-1.808,5.881,2.147,11.794,4.883,17.3,5.331,10.74,6.093,24.437-.786,34.249-6.164,8.664-16.857,12.784-26.866,16.385a26.442,26.442,0,0,0,16.983,5.637c-2.312,6.7-10.5,8.916-17.486,10.158,3.664,3.522,8.908,4.8,13.94,5.582a41.774,41.774,0,0,0,7.462.59h.613l.613-.047a21.363,21.363,0,0,0,2.54-.322c3.633-.739,7.163-2.72,9.018-5.928,1.573-2.744,2.123-6.487,4.977-7.863a6.363,6.363,0,0,1,2.359-.558H277.5l11.9.118h1.517c3.357-.079,6.943-.66,8.649-3.436a9.531,9.531,0,0,0,1.077-4.364c.252-3.766,0-7.642.1-11.44,1.014,6.911,2.076,17.683-.448,21.661a36.955,36.955,0,0,1-7.375,8,14.153,14.153,0,0,0-1.95,2c-.385.275-.613.425-.613.425l-.244.731a13.845,13.845,0,0,0-1.918,4.45,3.09,3.09,0,0,0-.149,1.266c.275.558-1.966,2.862-1.313,3.829-5.6,6.565-6.66,16.511-6.66,16.511l-10.221,15.521c-5.252,13.8-13.115,15.214-13.115,15.214s-18.469-12.391-18.972-13-7.564-3.632-7.564-3.632a8,8,0,0,0-3.633-3.318c-2.422-1.006-2.626-4.717-2.626-4.717-.3-8.767-5.449-9.435-5.449-9.435a16.731,16.731,0,0,0-9.757,1.738l-.739.055c-3.57.291-7.862.613-12.58.928-13.122.865-16.244,9.364-16.244,9.364a2.616,2.616,0,0,0,.5,3.782c2.115,1.966,15.654,0,16.228-.047a8.791,8.791,0,0,1-3.082-.212c2.131-.079,5.063-.157,7.564-.157h.6a32.716,32.716,0,0,0-.228,3.994c0,2.516,6.958,4.128,6.958,4.128l21.189,18.87s13.319,5.952,21.795,14.514,15.969,1.172,15.969,1.172c8.971-2.217,34.784-33.423,34.807-33.455h0c0,.912.543,31.261,1.573,37.355h0a4.048,4.048,0,0,0,.228.9c1.211,2.618-.409,9.773-1.109,12.792a35.538,35.538,0,0,0-.511,7.658s-9.679,36.954-8.877,40.2-5.244,18.335-5.244,18.335v12.58l1.054-.055a6.8,6.8,0,0,0-.377.629l-.071.134s6.455,1.407,10.8,1.006,11.794,3.342,11.794,3.342,2.524,1.2,10.292,1.7,7.768-3.428,7.768-3.428c-.888-5.354-13.162-7.147-13.539-7.2-.991-.621-1.918-1.3-2.681-1.879l-.157-.126a3.378,3.378,0,0,0,.134-.362c1.313-5.346-5.952-7.666-5.952-7.666v-1.3c4.718-2.422,5.653-19.043,5.653-19.043s7.076-20.552,8.067-23.981,0-8.562,0-8.562l.708-4.435a21.811,21.811,0,0,0,1.517-3.625,8.955,8.955,0,0,1,1.714-4.23c1.109-1.313-1.211-4.435-1.211-4.435l2.021-5.236V567.93l4.718-20.851s4.945-24.287,3.231-32.236,2.021-11.99,2.021-11.99a9.907,9.907,0,0,1-1.038.472,30.009,30.009,0,0,0,1.219-3.349l10.614,1.313v.157h3.829s-1.211-14.939-1.211-20.961,4.081-27.637,4.081-27.637S354.347,431.72,352.53,431.115Zm-47.12-17.439c0,.59-.055,1.2-.094,1.832l-.212.322-.393-.33-.48.747-.141.071c-1.038-.535-1.573-3.593-2.319-2.933l-.1.086c-.165-.189-.33-.244-.5-.086l-.157.134v-.7a17.693,17.693,0,0,0,4.4.558C305.418,413.48,305.41,413.582,305.41,413.676Zm35.3,69.567h.228l-.377.991c.05-.334.1-.652.152-.991Zm-38.754,178.3-1.447-.362.786-.134.731.48.087.063Zm14.781-2.115c-.48-.252-.967-.542-1.439-.841.161.084.782.407,1.442.839Z" transform="translate(-178.583 -242.334)" fill="url(#linear-gradient-2)"/>
      <path id="Path_48" data-name="Path 48" d="M359.035,390.03l-9.521,24.814h2.312l-8.955,7.139L359.035,424Z" transform="translate(-191.684 -163.973)" fill="#f86d70"/>
      <path id="Path_49" data-name="Path 49" d="M359.035,390.03l-9.521,24.814-2.4-.645-4.246,7.784L359.035,424Z" transform="translate(-191.684 -163.973)" opacity="0.1"/>
      <path id="Path_50" data-name="Path 50" d="M344.44,397.961h14.931l5.48-45.091H344.44Z" transform="translate(-192.02 -156.03)" fill="#f86d70"/>
      <path id="Path_51" data-name="Path 51" d="M344.44,397.961h14.931l5.48-45.091H344.44Z" transform="translate(-192.02 -156.03)" opacity="0.1"/>
      <path id="Path_52" data-name="Path 52" d="M334.937,476.786l3.224-.542,7.406-1.258s22.243-5.016,26.835-5.425a28.676,28.676,0,0,0,8.051-2.3c1.2-.519,1.966-.912,1.966-.912l-8.012-14.632L361.976,442.5s-7.863-1.675-11.188-6.251a7.367,7.367,0,0,1-1.03-6.982c2.029-6.29-12.116,6.015-12.116,6.015s.134,2.948,0,6.707c0,.739-.071,1.51-.126,2.3a15.485,15.485,0,0,1-.126,1.573c-.346,3.735-1.054,7.579-2.453,9.875C331.517,461.352,334.937,476.786,334.937,476.786Z" transform="translate(-211.678 -269.269)" fill="#fbbebe"/>
      <path id="Path_53" data-name="Path 53" d="M338.79,442.395h.315c.566,0,1.022-1.2,1.573-1.258,4.427-.425,8.468-1.352,11.275-4.489a7.375,7.375,0,0,1-1.03-6.974c2.029-6.29-12.116,6.007-12.116,6.007S338.955,438.636,338.79,442.395Z" transform="translate(-212.827 -269.355)" opacity="0.1"/>
      <path id="Path_54" data-name="Path 54" d="M316.89,418.976a17.227,17.227,0,0,0,17.235,17.235,12,12,0,0,0,1.683-.079,17.235,17.235,0,1,0-18.917-17.156Z" transform="translate(-208.146 -263.768)" fill="#fbbebe"/>
      <path id="Path_55" data-name="Path 55" d="M297.126,389.348c-.566,1.462-.393,3.1-.621,4.647-.841,5.59-6.526,8.94-11.668,11.283s-10.945,5.118-12.58,10.52c-1.793,5.842,2.123,11.7,4.843,17.18,5.3,10.677,6.054,24.3-.786,34.06-6.078,8.649-16.669,12.753-26.638,16.354A26.261,26.261,0,0,0,266.54,489c-2.288,6.66-10.426,8.869-17.36,10.1,3.64,3.507,8.853,4.78,13.846,5.551a31.4,31.4,0,0,0,11.008.2,13.224,13.224,0,0,0,8.948-5.9c1.573-2.728,2.107-6.447,4.945-7.823a8.948,8.948,0,0,1,4.033-.59l11.794.126c3.672,0,8.02-.283,9.915-3.42a9.435,9.435,0,0,0,1.069-4.34c.511-7.737-.975-15.914,2.209-22.974.959-2.131-5.2-5.5-4.552-7.76a72.486,72.486,0,0,0,2.752-21.944c0-6.251,4.065-11.636,7.422-16.912s6.164-11.935,3.515-17.6C323.1,389.41,300.656,380.235,297.126,389.348Z" transform="translate(-193.673 -260.298)" fill="#3f3d56"/>
      <path id="Path_56" data-name="Path 56" d="M330.13,755.464l3,1.989.464.307.086.055,3.562,2.359,8.319,1.4,7.312-.5s2.107-4.4-1.2-4.3a6.887,6.887,0,0,1-3.019-.873l-.456-.228h0c-.48-.252-.959-.535-1.431-.833h0c-.983-.621-1.911-1.3-2.658-1.871-1.1-.849-1.832-1.494-1.832-1.494Z" transform="translate(-210.976 -338.522)" fill="#fbbebe"/>
      <path id="Path_57" data-name="Path 57" d="M334,758.657l.464.307.087.055,3.562,2.359,8.318,1.4,7.312-.5s2.107-4.4-1.2-4.3a6.887,6.887,0,0,1-3.019-.873c.582.456,1.069.951,1.116,1.368.134,1.124-5.409,3.145-5.409,3.145l-7.815-2.068s-1.329-.377-3.145-.849l-.173-.047Z" transform="translate(-211.803 -339.725)" opacity="0.1"/>
      <path id="Path_58" data-name="Path 58" d="M317,760.276s6.408,1.4,10.717,1,11.731,3.31,11.731,3.31,2.508,1.179,10.221,1.683,7.713-3.412,7.713-3.412c-.881-5.323-13.067-7.076-13.445-7.155h0a14.972,14.972,0,0,1,1.431.833h0c.865.566,1.8,1.3,1.871,1.9.134,1.116-5.409,3.145-5.409,3.145l-7.815-2.06s-1.329-.385-3.145-.857h-.17a67,67,0,0,0-8.193-1.69c-3.365-.362-5.087,2.5-5.441,3.145a.937.937,0,0,0-.063.157Z" transform="translate(-208.169 -339.426)" fill="#3f3d56"/>
      <path id="Path_59" data-name="Path 59" d="M188.54,579.247l3.4,2.61s.991-.047,2.469-.094h.472c2.115-.079,5.032-.157,7.509-.157a23.845,23.845,0,0,1,4.788.267c1.7.6,4.718-9.718,4.718-9.718l-3.412-.786-1.132-.267-.786-.189-2.775-.653-8.413.959-5.913,3.8Z" transform="translate(-180.711 -299.788)" fill="#fbbebe"/>
      <path id="Path_60" data-name="Path 60" d="M188.54,579.247l3.4,2.61s.991-.047,2.469-.094a2.98,2.98,0,0,1-1.572-1.407c-2.2-6.109,8.719-8.72,8.719-8.72l5.087-.22.991-.047h.786l-1.132-.267-.786-.189-2.775-.653-8.413.959-5.913,3.8Z" transform="translate(-180.711 -299.788)" opacity="0.1"/>
      <path id="Path_61" data-name="Path 61" d="M179.7,581.156c2.06,1.9,15.552,0,16.118-.047a8.491,8.491,0,0,1-3.058-.212,3.373,3.373,0,0,1-2.359-1.69c-2.2-6.117,8.719-8.72,8.719-8.72l5.087-.22.983-.047,12.368-.535.6-3.4s-4.018.377-10.323.881c-3.546.291-7.862.613-12.525.92-13.028.865-16.126,9.317-16.126,9.317a2.614,2.614,0,0,0,.516,3.753Z" transform="translate(-178.589 -298.937)" fill="#3f3d56"/>
      <path id="Path_62" data-name="Path 62" d="M372.222,377.513a3.481,3.481,0,0,0,.3.535l3,4.4,7.815.786.086-3.1,1.313-46.609s5.409-31.261-4.812-29.461-3.8,29.461-3.8,29.461-1.164,14.027-1.981,18.241C373.346,355.844,369.784,372.4,372.222,377.513Z" transform="translate(-219.793 -242.874)" fill="#fbbebe"/>
      <path id="Path_63" data-name="Path 63" d="M350.14,543.885l2.225,3.8,4.977,8.515s9.026,3.31,11.338.786c1.266-1.376,2.634-6.18,3.593-10.221.786-3.271,1.313-6.031,1.313-6.031Z" transform="translate(-215.253 -293.478)" fill="#fbbebe"/>
      <path id="Path_64" data-name="Path 64" d="M350.14,543.9l2.225,3.8a2.615,2.615,0,0,0,.377-.4c2.516-3.208,13.594-.684,19.53-.48.786-3.271,1.313-6.031,1.313-6.031Z" transform="translate(-215.253 -293.489)" opacity="0.1"/>
      <path id="Path_65" data-name="Path 65" d="M206.16,580.739a23.845,23.845,0,0,1,4.788.267c1.7.6,4.718-9.718,4.718-9.718l-4.545-1.069,12.368-.535.6-3.4s-4.018.377-10.323.881a12.972,12.972,0,0,0-3.436,2.87l-.189.236C207.5,573.5,206.53,577.665,206.16,580.739Z" transform="translate(-184.477 -298.937)" opacity="0.1"/>
      <path id="Path_66" data-name="Path 66" d="M330.13,755.456l3.467,2.3c5.174-.936,9.9-2.406,10.457-4.717a.777.777,0,0,0,0-.11c-1.1-.849-1.832-1.494-1.832-1.494Z" transform="translate(-210.976 -338.513)" opacity="0.1"/>
      <path id="Path_67" data-name="Path 67" d="M317.09,760.48a120.018,120.018,0,0,0,13.634-1.462,67.068,67.068,0,0,0-8.2-1.706C319.166,756.95,317.444,759.812,317.09,760.48Z" transform="translate(-208.189 -339.764)" opacity="0.1"/>
      <path id="Path_68" data-name="Path 68" d="M206.64,579.248c0,2.508,6.911,4.112,6.911,4.112L234.6,602.1s13.225,5.913,21.638,14.428,15.835,1.2,15.835,1.2c8.916-2.2,34.6-33.266,34.6-33.266s.6,35.476,1.8,38.078-.4,9.718-1.1,12.729a35.379,35.379,0,0,0-.5,7.611s-9.616,36.773-8.814,39.981-5.213,18.241-5.213,18.241v12.525s23.548-.9,24.845-6.211-5.9-7.619-5.9-7.619v-1.3c4.717-2.406,5.606-18.933,5.606-18.933s7.021-20.443,8.02-23.847,0-8.523,0-8.523l.7-4.4a21.979,21.979,0,0,0,1.5-3.609,8.916,8.916,0,0,1,1.706-4.206c1.1-1.3-1.2-4.411-1.2-4.411l2-5.213v-5.708L334.83,598.9s4.914-24.154,3.208-32.071,2-11.92,2-11.92c-8.043,4.214-12.1-5.166-13.429-9.2-.338-1.038-.5-1.73-.5-1.73s-11.047-4.073-21.331-3.1a24.554,24.554,0,0,0-6.125,1.3c-11.424,4.112-13.225,21.142-13.225,21.142l-10.119,15.434c-5.213,13.728-13.028,15.127-13.028,15.127s-18.335-12.321-18.87-12.926-7.517-3.609-7.517-3.609a7.941,7.941,0,0,0-3.609-3.3c-2.406-1.006-2.6-4.717-2.6-4.717-.3-8.72-5.409-9.435-5.409-9.435C206.538,558.412,206.64,576.748,206.64,579.248Z" transform="translate(-184.58 -293.475)" fill="#3f3d56"/>
      <rect id="Rectangle_354" data-name="Rectangle 354" width="10.819" height="33.565" transform="translate(134.887 236.781) rotate(180)" fill="#f86d70"/>
      <rect id="Rectangle_355" data-name="Rectangle 355" width="10.819" height="33.565" transform="translate(134.887 236.781) rotate(180)" opacity="0.1"/>
      <path id="Path_69" data-name="Path 69" d="M372.44,397.41a.492.492,0,0,0,0,.071,3.47,3.47,0,0,0,.3.535l3,4.4,7.815.786.086-3.1C381.206,399.918,375.655,399.25,372.44,397.41Z" transform="translate(-220.019 -262.841)" opacity="0.1"/>
      <path id="Path_70" data-name="Path 70" d="M370.075,398.18s.4,17.628-4.01,20.034-6.125,14.939-6.125,14.939,13.366,8.79,16.346,12.659,9.82,13.083,8.413,15.285,3.412,12.226,3.412,12.226-8.822,18.036-6.817,24.853,2.2,24.845,2.2,24.845h3.813s-1.2-14.829-1.2-20.843,4-27.456,4-27.456,1.808-21.04,0-21.638-12.423-9.018-13.225-12.832S382.5,400.94,382.5,400.94,374.281,400.586,370.075,398.18Z" transform="translate(-217.348 -263.006)" fill="#f86d70"/>
      <path id="Path_71" data-name="Path 71" d="M336.12,472.567a17.157,17.157,0,0,0,2.618,6.872l7.406-1.258s22.243-5.016,26.835-5.425a28.673,28.673,0,0,0,8.051-2.3,35.506,35.506,0,0,0-9.946-16.315l-2.823-2.618a47.292,47.292,0,0,0-14.231-9.1c.33.275,23.666,20.2,18.555,24.106s-18.87-5.606-18.87-5.606L338.07,447.486,337.5,447l-.9,1.407a13.1,13.1,0,0,1,1.345.645,23.021,23.021,0,0,1,11.007,13.681C352.167,473.542,336.12,472.567,336.12,472.567Z" transform="translate(-212.256 -272.464)" opacity="0.1"/>
      <path id="Path_72" data-name="Path 72" d="M330,543.68s14.829,8.216,18.43,3.609c.786-1.014,2.445-1.455,4.513-1.572-.338-1.038-.5-1.73-.5-1.73s-11.047-4.073-21.331-3.1C330.432,542.587,330,543.68,330,543.68Z" transform="translate(-210.948 -293.478)" fill="#444053"/>
      <path id="Path_73" data-name="Path 73" d="M336.825,447.02l16.212,13.948s13.7,9.545,18.87,5.606-18.563-24.114-18.563-24.114h0a47.961,47.961,0,0,1,14.223,9.073l2.823,2.618c7.422,6.88,9.1,6.88,9.349,16.991.063,2.492-.786,6.07-1.439,6.715-2.406,2.359-4.089,19.491-3.719,21.5s-4.482,19.31-2.909,24.122-19.656-2.406-23.249,2.209S330,522.076,330,522.076s8.216-21.048,10.221-22.447,4.411-12.226,0-17.235a18.694,18.694,0,0,1-4.8-9.82s16.039.991,12.824-9.82a22.691,22.691,0,0,0-12.328-14.325Z" transform="translate(-210.948 -272.471)" fill="#e8e8f0"/>
      <path id="Path_74" data-name="Path 74" d="M361.625,493.38s-6.219,11.723-14.263,14.766c-.259.094-.511.181-.786.259C338.179,510.961,362.254,497.013,361.625,493.38Z" transform="translate(-214.111 -283.355)" opacity="0.1"/>
      <path id="Path_75" data-name="Path 75" d="M252.055,354.3s3,7.619,5.409,10.221S277.7,393.176,277.7,393.176l1.51,3.145,1.3,2.681,11.424-1.2.786-4.607-.44-.535a53.978,53.978,0,0,0-6.376-6.683c-2.6-2-7.815-8.609-7.815-8.609s-16.228-16.841-17.431-21.449-17.439-32.236-21.04-27.456S252.055,354.3,252.055,354.3Z" transform="translate(-191.516 -247.985)" fill="#fbbebe"/>
      <g id="Group_7" data-name="Group 7" transform="translate(73.591 125.221)" opacity="0.1">
        <path id="Path_76" data-name="Path 76" d="M292.277,519.091a8.955,8.955,0,0,0-4.034.582c-2.83,1.376-3.365,5.095-4.938,7.823-1.84,3.192-5.346,5.166-8.955,5.9a19.986,19.986,0,0,1-2.17.3,24.64,24.64,0,0,0,6.888-.3c3.609-.731,7.116-2.7,8.955-5.9,1.573-2.728,2.107-6.447,4.938-7.823a6.291,6.291,0,0,1,2.359-.55Z" transform="translate(-272.18 -414.065)"/>
        <path id="Path_77" data-name="Path 77" d="M329.417,430.234c0-6.251,4.065-11.636,7.414-16.912s6.164-11.935,3.515-17.6c-2.264-4.835-15.914-11.322-23.792-10.04,7.713,1,17.219,6.078,19.074,10.04,2.65,5.661-.165,12.321-3.515,17.6s-7.43,10.662-7.414,16.912a73.4,73.4,0,0,1-2.76,21.944c-.637,2.241,5.5,5.63,4.56,7.752-3.192,7.076-1.7,15.237-2.209,22.974a9.553,9.553,0,0,1-1.077,4.34c-1.573,2.587-4.8,3.255-7.933,3.4h2.744c3.664,0,8.012-.283,9.907-3.42a9.553,9.553,0,0,0,1.077-4.34c.511-7.737-.983-15.906,2.209-22.974.959-2.123-5.2-5.5-4.56-7.752a72.524,72.524,0,0,0,2.76-21.924Z" transform="translate(-281.393 -385.521)"/>
      </g>
      <path id="Path_78" data-name="Path 78" d="M290.12,413.9l1.3,2.681,11.424-1.2.786-4.607-.44-.535C301.969,410.838,292.84,415.233,290.12,413.9Z" transform="translate(-202.424 -265.584)" opacity="0.1"/>
      <path id="Path_79" data-name="Path 79" d="M332.48,444.186s-2.807-4.4-4.411-3.208-2.225-3.609-3.145-2.807-3.6,3.035-4.717-.087c-.873-2.485-10.371-18.2-14.223-24.523-.991-1.635-1.612-2.642-1.612-2.642s-10.819,5.409-13.421,3.609v3.8l2.2.2,11.794,22.015s3.711,5.9,3.46,7.965,4.757,11.078,5.559,11.676,9.435,10.622,9.435,10.622,4.411,21.645.6,27.66-10.418,10.418-10.418,10.418-1.989,5.81-1.7,6.416-2.312,3.208-1.109,4.01,2.807,6.408,2.807,6.408,5.614-9.018,8.649-10.418,6.919-19.845,6.919-19.845,1.109-10.866,1.2-17.879S330.074,444.186,332.48,444.186Z" transform="translate(-202.601 -265.729)" opacity="0.1"/>
      <path id="Path_80" data-name="Path 80" d="M331.71,444.186s-2.8-4.4-4.4-3.208-2.233-3.609-3.145-2.807-3.593,3.035-4.717-.087c-.881-2.485-10.379-18.2-14.223-24.523l-1.612-2.642s-10.819,5.409-13.429,3.609v3.8l2.209.2,11.794,22.015s3.719,5.9,3.459,7.965,4.717,11.078,5.559,11.676,9.435,10.622,9.435,10.622,4.411,21.645.605,27.66a36.86,36.86,0,0,1-7.257,8.035,14.027,14.027,0,0,0-4.717,7.564,2.987,2.987,0,0,0-.142,1.258c.291.6-2.312,3.208-1.109,4.01s2.823,6.432,2.823,6.432,5.614-9.018,8.649-10.418,6.927-19.845,6.927-19.845,1.1-10.866,1.2-17.879S329.351,444.186,331.71,444.186Z" transform="translate(-202.437 -265.729)" fill="#f86d70"/>
      <path id="Path_81" data-name="Path 81" d="M307.8,569.21s8.421,1.573,11.794,4-12.824-3.8-12.824-3.8Z" transform="translate(-205.983 -299.564)" opacity="0.1"/>
      <path id="Path_82" data-name="Path 82" d="M333.83,596.35s8.782,7.32,7.21,13.932-5.629,23.249-5.629,23.249Z" transform="translate(-211.767 -305.365)" opacity="0.1"/>
      <path id="Path_83" data-name="Path 83" d="M232.983,578.45s-12.376,1.352-11.574,2.956,11.574-1.478,11.574-1.478Z" transform="translate(-187.729 -301.539)" opacity="0.1"/>
      <path id="Path_84" data-name="Path 84" d="M355.311,654.761s.786,1-3.8,0-1.2-4.081-1.2-4.081Z" transform="translate(-215.03 -316.978)" opacity="0.1"/>
      <path id="Path_85" data-name="Path 85" d="M352.221,673.339s-6.29,1-9.663,0S352.221,673.339,352.221,673.339Z" transform="translate(-213.513 -321.726)" opacity="0.1"/>
      <path id="Path_86" data-name="Path 86" d="M334.181,742.191s-1.1-1.2-6.612,1-7.713,2.3-9.317,1.573S334.181,742.191,334.181,742.191Z" transform="translate(-208.415 -336.468)" opacity="0.1"/>
      <path id="Path_87" data-name="Path 87" d="M344.2,576.28l-7.815,10.874S340.586,577.632,344.2,576.28Z" transform="translate(-212.312 -301.075)" opacity="0.1"/>
      <path id="Path_88" data-name="Path 88" d="M323.907,449.15s-.338,3.609-5.378,5.016-6,2.547-6,2.547" transform="translate(-207.214 -273.901)" opacity="0.1"/>
      <path id="Path_89" data-name="Path 89" d="M306.644,415.88s-6.652,4.717-13.594,3.719" transform="translate(-203.05 -266.789)" opacity="0.1"/>
      <path id="Path_90" data-name="Path 90" d="M316.78,543.232s1.942,1.219,6.6-4.112" transform="translate(-208.122 -293.132)" opacity="0.1"/>
      <path id="Path_91" data-name="Path 91" d="M376.767,470.714a3.415,3.415,0,0,0-1.124-2.642l-1.3-1.573a6.052,6.052,0,0,0-.857-.881c-.786-.6-1.793-.786-2.61-1.329" transform="translate(-219.684 -277.137)" opacity="0.1"/>
    </g>
    <g id="Group_8-2" data-name="Group 8" transform="translate(405.713 326.11)">
      <path id="Path_33" data-name="Path 33" d="M747.736,372.81l-.537,7.2c-.078.978-1.948,24.26-15.734,51.469-11.831,23.337-34.852,53.733-78.315,70.815q-5.087,2.016-10.56,3.755l-4.07-12.777a149.4,149.4,0,0,0,29.354-12.843,129.919,129.919,0,0,0,51.39-54.544,146.524,146.524,0,0,0,13.485-39.67H683.3v-13.4Z" transform="translate(-451.398 -350.6)" fill="silver"/>
      <path id="Path_34" data-name="Path 34" d="M648.823,502.307c43.456-17.082,66.486-47.47,78.308-70.808,13.785-27.209,15.663-50.476,15.734-51.469l.537-7.2h5.52l-.537,7.2c-.071.978-1.948,24.26-15.734,51.469-11.831,23.337-34.852,53.725-78.308,70.808q-5.087,2.017-10.568,3.762l-.537-1.68Q646.095,503.372,648.823,502.307Z" transform="translate(-452.395 -350.605)" fill="#fcfcfc" opacity="0.3"/>
      <path id="Path_35" data-name="Path 35" d="M510.736,493.273l-4.07,12.777q-5.481-1.751-10.568-3.762c-43.456-17.082-66.486-47.47-78.308-70.808-13.787-27.209-15.663-50.475-15.734-51.469l-.537-7.2h64.4v13.407H416.465a146.6,146.6,0,0,0,13.526,39.67,129.836,129.836,0,0,0,51.384,54.541,149.062,149.062,0,0,0,29.366,12.848Z" transform="translate(-401.315 -350.6)" fill="silver"/>
      <path id="Path_36" data-name="Path 36" d="M501.359,502.307c-43.46-17.082-66.486-47.468-78.308-70.808-13.787-27.209-15.663-50.476-15.734-51.469l-.537-7.2h-5.52l.537,7.2c.071.978,1.948,24.26,15.734,51.469,11.831,23.337,34.852,53.725,78.308,70.808q5.087,2.017,10.568,3.762l.537-1.68Q504.1,503.372,501.359,502.307Z" transform="translate(-401.26 -350.605)" fill="#fcfcfc" opacity="0.3"/>
      <path id="Path_37" data-name="Path 37" d="M643.721,657.213v72.3H494.92v-72.3l4.733-6.309c48.22-17.114,57.991-61.746,59.94-79.4a72.563,72.563,0,0,0,.5-7.35h18.4a72.692,72.692,0,0,0,.5,7.35c1.98,17.658,11.751,62.305,59.94,79.4Z" transform="translate(-421.052 -391.034)" fill="silver"/>
      <rect id="Rectangle_352" data-name="Rectangle 352" width="148.801" height="9.069" transform="translate(73.868 266.18)" opacity="0.1"/>
      <path id="Path_38" data-name="Path 38" d="M507.539,650.9c48.22-17.114,57.991-61.746,59.94-79.4a72.6,72.6,0,0,0,.5-7.35h-7.887a72.549,72.549,0,0,1-.5,7.35c-1.98,17.658-11.751,62.306-59.94,79.4l-4.733,6.309v72.3h7.887v-72.3Z" transform="translate(-421.052 -391.034)" fill="#fcfcfc" opacity="0.3"/>
      <path id="Path_39" data-name="Path 39" d="M466.26,372.81H479.6v13.407h-12.16Q466.725,379.593,466.26,372.81Z" transform="translate(-414.996 -350.6)" opacity="0.1"/>
      <path id="Path_40" data-name="Path 40" d="M532.133,522.108l-4.07,12.777q-5.481-1.751-10.568-3.762A141.3,141.3,0,0,1,502.77,509.26a149.064,149.064,0,0,0,29.366,12.848Z" transform="translate(-422.711 -379.435)" opacity="0.1"/>
      <path id="Path_41" data-name="Path 41" d="M638.51,522.11a149.4,149.4,0,0,0,29.353-12.84,141.847,141.847,0,0,1-14.724,21.87q-5.087,2.016-10.56,3.755Z" transform="translate(-451.395 -379.437)" opacity="0.1"/>
      <path id="Path_42" data-name="Path 42" d="M708.667,372.81q-.465,6.783-1.183,13.407H695.33V372.81Z" transform="translate(-463.403 -350.6)" opacity="0.1"/>
      <path id="Path_43" data-name="Path 43" d="M596.354,571.5a50.978,50.978,0,0,1-19.394,0,72.6,72.6,0,0,0,.5-7.35h18.4a72.6,72.6,0,0,0,.5,7.35Z" transform="translate(-438.389 -391.035)" opacity="0.1"/>
      <path id="Path_44" data-name="Path 44" d="M468.26,344.65c.339,99.421,42.928,179.819,95.431,179.819s95.083-80.4,95.433-179.819Z" transform="translate(-415.418 -344.65)" fill="silver"/>
      <path id="Path_45" data-name="Path 45" d="M485.216,344.65H468.26c.339,99.421,42.928,179.819,95.431,179.819a51.534,51.534,0,0,0,8.478-.717C523.639,515.644,485.54,438.66,485.216,344.65Z" transform="translate(-415.418 -344.65)" fill="#fcfcfc" opacity="0.3"/>
      <rect id="Rectangle_353" data-name="Rectangle 353" width="101.212" height="26.027" transform="translate(97.663 293.854)" fill="#3f3d56"/>
      <path id="Path_46" data-name="Path 46" d="M501.823,597.049h96.484V593.5H497.09v26.027h4.733Z" transform="translate(-399.427 -299.646)" fill="#fff" opacity="0.1"/>
      <text id="_2nd" data-name="2nd" transform="translate(92.653 104.208)" fill="#fcfcfc" font-size="55" font-family="SegoeUI-Bold, Segoe UI" font-weight="700"><tspan x="0" y="0">2nd</tspan></text>
    </g>
  </g>
</svg>
