<svg xmlns="http://www.w3.org/2000/svg" xmlns:xlink="http://www.w3.org/1999/xlink" width="411" height="411" viewBox="0 0 411 411">
  <defs>
    <linearGradient id="linear-gradient" x1="-0.157" y1="-0.124" x2="1.177" y2="1.112" gradientUnits="objectBoundingBox">
      <stop offset="0" stop-color="#ff9800"/>
      <stop offset="1" stop-color="#ff5785"/>
    </linearGradient>
  </defs>
  <g id="AI" transform="translate(-763.783 -74)">
    <g id="Rectangle_45" data-name="Rectangle 45" transform="translate(763.783 74)" fill="#fff" stroke="#707070" stroke-width="1" opacity="0">
      <rect width="411" height="411" stroke="none"/>
      <rect x="0.5" y="0.5" width="410" height="410" fill="none"/>
    </g>
    <g id="People" transform="translate(815.783 115)">
      <g id="Icon-9">
        <path id="android-brain" d="M112,148.5a5.5,5.5,0,1,0,5.5-5.5,5.506,5.506,0,0,0-5.5,5.5Zm11,99a5.5,5.5,0,1,0-5.5,5.5,5.506,5.506,0,0,0,5.5-5.5Zm-44-99a5.5,5.5,0,1,0-5.5,5.5,5.506,5.506,0,0,0,5.5-5.5Zm0,66a5.5,5.5,0,1,0-5.5,5.5,5.506,5.506,0,0,0,5.5-5.5Zm33-121a5.5,5.5,0,1,0,5.5-5.5,5.506,5.506,0,0,0-5.5,5.5ZM79,99v34.012A16.448,16.448,0,0,1,88.983,143h13.035A16.458,16.458,0,1,1,123,163.988v68.024a16.4,16.4,0,0,1,0,30.976V280.5a5.5,5.5,0,0,1-11,0V262.983a16.433,16.433,0,0,1-10.741-12.952L80.611,229.389c-.016-.011-.016-.033-.033-.05A16.263,16.263,0,0,1,73.5,231,16.5,16.5,0,1,1,90,214.5a16.282,16.282,0,0,1-1.661,7.078.257.257,0,0,0,.049.033l15.988,15.994A16.494,16.494,0,0,1,112,232.012V163.983A16.426,16.426,0,0,1,102.018,154H88.983A16.458,16.458,0,1,1,68,133.012V93.5A5.5,5.5,0,0,1,73.5,88h28.518A16.448,16.448,0,0,1,112,78.012V60.5a5.5,5.5,0,0,1,11,0V78.012A16.459,16.459,0,1,1,102.018,99ZM296.982,204.848a38.45,38.45,0,0,0-1.2-58.69A32.664,32.664,0,0,0,299,132a33.029,33.029,0,0,0-15.356-27.775,32.779,32.779,0,0,0-17.7-47.306c.038-.643.06-1.281.06-1.919a33.033,33.033,0,0,0-33-33,32.255,32.255,0,0,0-12.8,2.64A35.983,35.983,0,0,0,186.25,0c-23.144,0-33.435,20.878-35.64,31.922a3.6,3.6,0,0,0,0,.545c-.017.187-.11.341-.11.534V291.17a30.274,30.274,0,0,1-60.357-.088A5.657,5.657,0,0,0,84.5,286a5.518,5.518,0,0,0-4.378,2.167A22,22,0,0,1,40.5,275a21.665,21.665,0,0,1,5.038-13.811,5.5,5.5,0,0,0-5.517-8.827,21.927,21.927,0,0,1-12.7-41.894,5.5,5.5,0,0,0,.6-10.037,27.446,27.446,0,0,1-1.573-47.971A5.494,5.494,0,0,0,28.01,144.6a21.84,21.84,0,0,1,10.461-33.171,5.493,5.493,0,0,0,2.206-8.833A21.82,21.82,0,0,1,53.156,66.4a5.508,5.508,0,0,0,4.417-6.611A21.736,21.736,0,0,1,57,55,22.022,22.022,0,0,1,79,33a21.741,21.741,0,0,1,13.288,4.6,5.5,5.5,0,0,0,8.827-3.916A24.856,24.856,0,0,1,125.75,11a21.551,21.551,0,0,1,15.483,6.017,5.5,5.5,0,0,0,7.551-8A32.5,32.5,0,0,0,125.75,0,35.983,35.983,0,0,0,91.8,24.64,32.255,32.255,0,0,0,79,22,33.033,33.033,0,0,0,46,55c0,.638.022,1.276.06,1.919a32.779,32.779,0,0,0-17.7,47.306A33.029,33.029,0,0,0,13,132a32.663,32.663,0,0,0,3.218,14.157,38.449,38.449,0,0,0-1.2,58.69A32.921,32.921,0,0,0,31.5,263.813,32.1,32.1,0,0,0,29.5,275a33,33,0,0,0,51.788,27.126,41.278,41.278,0,0,0,80.2-10.208c.006-.072-.027-.138-.027-.209s.044-.132.044-.209V33.605C162.314,30.228,167.742,11,186.25,11a24.856,24.856,0,0,1,24.634,22.682,5.5,5.5,0,0,0,8.827,3.916A21.741,21.741,0,0,1,233,33a22.022,22.022,0,0,1,22,22,21.735,21.735,0,0,1-.572,4.79,5.508,5.508,0,0,0,4.416,6.611,21.82,21.82,0,0,1,12.479,36.19,5.493,5.493,0,0,0,2.206,8.833A21.84,21.84,0,0,1,283.991,144.6a5.493,5.493,0,0,0,1.661,7.865,27.446,27.446,0,0,1-1.573,47.971,5.5,5.5,0,0,0,.6,10.037,21.918,21.918,0,0,1-12.7,41.894,5.5,5.5,0,0,0-5.517,8.827A21.665,21.665,0,0,1,271.5,275a22.022,22.022,0,0,1-22,22,21.773,21.773,0,0,1-17.589-8.937,5.516,5.516,0,0,0-6.138-1.936,5.883,5.883,0,0,0-3.916,4.956,30.244,30.244,0,0,1-48.972,21.351,5.5,5.5,0,0,0-6.831,8.624,41.238,41.238,0,0,0,64.669-18.97A32.469,32.469,0,0,0,249.5,308a33.033,33.033,0,0,0,33-33,32.1,32.1,0,0,0-2-11.187,32.921,32.921,0,0,0,16.478-58.966ZM200,247.5a5.5,5.5,0,0,0,5.5,5.5c8.019,0,16.5,8.481,16.5,16.5a5.5,5.5,0,0,0,11,0c0-14.135-13.365-27.5-27.5-27.5a5.5,5.5,0,0,0-5.5,5.5ZM249.5,99c-8.019,0-16.5-8.481-16.5-16.5a5.5,5.5,0,0,0-11,0c0,14.135,13.365,27.5,27.5,27.5a5.5,5.5,0,0,0,0-11Zm-66,121a5.5,5.5,0,0,0,5.5-5.5c0-8.019,8.481-16.5,16.5-16.5a5.5,5.5,0,1,0,0-11c-14.135,0-27.5,13.365-27.5,27.5a5.5,5.5,0,0,0,5.5,5.5Zm22-66a5.5,5.5,0,1,0,0-11c-8.019,0-16.5-8.481-16.5-16.5a5.5,5.5,0,0,0-11,0c0,14.135,13.365,27.5,27.5,27.5Zm55-22a5.5,5.5,0,0,0-5.5,5.5c0,8.019-8.481,16.5-16.5,16.5a5.5,5.5,0,0,0,0,11c14.135,0,27.5-13.365,27.5-27.5a5.5,5.5,0,0,0-5.5-5.5Zm-22,66a5.5,5.5,0,0,0,0,11c8.019,0,16.5,8.481,16.5,16.5a5.5,5.5,0,1,0,11,0c0-14.135-13.365-27.5-27.5-27.5ZM178,77c0-14.135,13.365-27.5,27.5-27.5a5.5,5.5,0,1,1,0,11c-8.019,0-16.5,8.481-16.5,16.5a5.5,5.5,0,0,1-11,0Z" transform="translate(-2)" fill-rule="evenodd" fill="url(#linear-gradient)"/>
      </g>
    </g>
  </g>
</svg>
