<svg xmlns="http://www.w3.org/2000/svg" xmlns:xlink="http://www.w3.org/1999/xlink" width="411" height="411" viewBox="0 0 411 411">
  <defs>
    <linearGradient id="linear-gradient" x1="-0.165" x2="1.175" y2="1" gradientUnits="objectBoundingBox">
      <stop offset="0" stop-color="#ff9800"/>
      <stop offset="1" stop-color="#ff5785"/>
    </linearGradient>
  </defs>
  <g id="BigData" transform="translate(-2047 -669)">
    <rect id="Rectangle_46" data-name="Rectangle 46" width="411" height="411" transform="translate(2047 669)" fill="#fff" opacity="0"/>
    <g id="Layer_7" transform="translate(2095.125 707)">
      <g id="Group_72" data-name="Group 72" transform="translate(2 1)">
        <path id="Union_4" data-name="Union 4" d="M-1360.227-3121.349a11.082,11.082,0,0,1-11.089-11.088v-20l-17.314,10a11.311,11.311,0,0,1-8.414,1.105,11.1,11.1,0,0,1-6.735-5.165l-11.089-19.21H-1525.86a33.3,33.3,0,0,1-33.265-33.265v-44.354a33.131,33.131,0,0,1,8.491-22.176,33.132,33.132,0,0,1-8.491-22.177v-44.354a33.131,33.131,0,0,1,8.491-22.177,33.128,33.128,0,0,1-8.491-22.177v-44.354A33.3,33.3,0,0,1-1525.86-3454h155.237a33.3,33.3,0,0,1,33.266,33.265v44.354a33.133,33.133,0,0,1-8.491,22.177,33.135,33.135,0,0,1,8.491,22.177v33.265h21.483a11.083,11.083,0,0,1,11.089,11.089v20.011l17.326-10.016a11.094,11.094,0,0,1,8.413-1.105,11.1,11.1,0,0,1,6.736,5.165l22.176,38.419a11.09,11.09,0,0,1,1.105,8.414,11.076,11.076,0,0,1-5.165,6.735l-17.326,10,17.326,10a11.073,11.073,0,0,1,5.165,6.735,11.09,11.09,0,0,1-1.105,8.414l-22.176,38.419a11.1,11.1,0,0,1-6.736,5.165,11.3,11.3,0,0,1-8.414-1.105l-17.325-10.016v20.011a11.082,11.082,0,0,1-11.089,11.088Zm-3.985-53.1a44.037,44.037,0,0,0,8.446,5.013,11.077,11.077,0,0,1,6.628,10.146v15.768h22.177v-15.767a11.1,11.1,0,0,1,6.637-10.156,44.493,44.493,0,0,0,8.457-5.013,11.1,11.1,0,0,1,12.128-.682l13.763,7.959,11.088-19.209-13.872-8a11.091,11.091,0,0,1-5.478-10.786l.271-2.155a20.651,20.651,0,0,0,.27-2.718,20.638,20.638,0,0,0-.27-2.718l-.271-2.154a11.1,11.1,0,0,1,5.478-10.787l13.872-8-11.088-19.209-13.763,7.959a11.081,11.081,0,0,1-12.128-.682,44.321,44.321,0,0,0-8.457-5.013,11.1,11.1,0,0,1-6.637-10.157v-15.769h-22.177v15.767a11.075,11.075,0,0,1-6.628,10.146,44.126,44.126,0,0,0-8.446,5.013,11.115,11.115,0,0,1-12.139.693l-13.763-7.958-11.088,19.208,13.872,8a11.1,11.1,0,0,1,5.478,10.85l-.27,2.037a21.53,21.53,0,0,0-.282,2.772,21.376,21.376,0,0,0,.282,2.772l.27,2.036a11.107,11.107,0,0,1-5.478,10.851l-13.872,8,1.978,3.426a11.06,11.06,0,0,1,.753,1.3l8.358,14.479,13.763-7.959a11.083,11.083,0,0,1,5.54-1.483A11.08,11.08,0,0,1-1364.212-3174.451Zm-172.736-68.87v44.354a11.1,11.1,0,0,0,11.088,11.089h98.723a11.13,11.13,0,0,1,.076-5.447,11.077,11.077,0,0,1,5.165-6.735l17.315-9.985v-.022l-17.315-9.985a11.073,11.073,0,0,1-5.165-6.735,11.1,11.1,0,0,1,1.105-8.414l11.089-19.21H-1525.86A11.1,11.1,0,0,0-1536.948-3243.321Zm148.318-34.357,17.314,10v-20a11.084,11.084,0,0,1,11.089-11.089h.693v-33.265a11.1,11.1,0,0,0-11.089-11.089H-1525.86a11.1,11.1,0,0,0-11.088,11.089v44.354a11.1,11.1,0,0,0,11.088,11.088h124.581a11.069,11.069,0,0,1,4.235-2.2,11.016,11.016,0,0,1,2.864-.378A11.118,11.118,0,0,1-1388.63-3277.678Zm-148.318-143.057v44.354a11.1,11.1,0,0,0,11.088,11.089h155.237a11.1,11.1,0,0,0,11.089-11.089v-44.354a11.1,11.1,0,0,0-11.089-11.088H-1525.86A11.1,11.1,0,0,0-1536.948-3420.735Zm165.632,210.68a33.3,33.3,0,0,1,33.265-33.265,33.3,33.3,0,0,1,33.266,33.265,33.3,33.3,0,0,1-33.266,33.265A33.3,33.3,0,0,1-1371.316-3210.055Zm22.177,0a11.1,11.1,0,0,0,11.088,11.088,11.1,11.1,0,0,0,11.089-11.088,11.1,11.1,0,0,0-11.089-11.089A11.1,11.1,0,0,0-1349.139-3210.055Zm-165.632,0a11.083,11.083,0,0,1-11.089-11.089,11.083,11.083,0,0,1,11.089-11.088h22.177a11.082,11.082,0,0,1,11.088,11.088,11.083,11.083,0,0,1-11.088,11.089Zm0-88.708a11.083,11.083,0,0,1-11.089-11.088,11.083,11.083,0,0,1,11.089-11.089h22.177a11.083,11.083,0,0,1,11.088,11.089,11.082,11.082,0,0,1-11.088,11.088Zm0-88.707a11.083,11.083,0,0,1-11.089-11.089,11.083,11.083,0,0,1,11.089-11.088h22.177a11.082,11.082,0,0,1,11.088,11.088,11.083,11.083,0,0,1-11.088,11.089Z" transform="translate(1559.125 3454)" fill="url(#linear-gradient)"/>
      </g>
    </g>
  </g>
</svg>
