<svg xmlns="http://www.w3.org/2000/svg" xmlns:xlink="http://www.w3.org/1999/xlink" width="411" height="411" viewBox="0 0 411 411">
  <defs>
    <linearGradient id="linear-gradient" x1="0.01" y1="0.229" x2="0.991" y2="0.735" gradientUnits="objectBoundingBox">
      <stop offset="0" stop-color="#ff9800"/>
      <stop offset="1" stop-color="#ff5785"/>
    </linearGradient>
  </defs>
  <g id="BlockChain" transform="translate(-763.783 -74)">
    <g id="Rectangle_45" data-name="Rectangle 45" transform="translate(763.783 74)" fill="#fff" stroke="#707070" stroke-width="1" opacity="0">
      <rect width="411" height="411" stroke="none"/>
      <rect x="0.5" y="0.5" width="410" height="410" fill="none"/>
    </g>
    <path id="Union_1" data-name="Union 1" d="M158.84,330.325l-.007.014-44.01-22.046.111-.087h-.38V261.666h.057v-2.71l3.468-1.393v.139l38.772-17.226V205.561l-38.809-19.733L91.667,199.822v.066l-.024.023V240.17l.024-.02v4.585L90,245.453,50.1,265.739l.014.031-2.435,1.3-1.634-.85-.007.014L2.031,244.191l.111-.087h-.38V197.563h.057v-2.71l3.468-1.393v.139l40.525-18.005.007.016,1.951-.86,2.006,1.035.016-.034,39.658,19.3,25.1-13.32V138.49L87.991,124.4l-39.65,20.162.014.031-2.435,1.3-1.634-.85-.007.014L.269,123.008l.111-.087H0V76.38H.057V73.67l3.468-1.393v.139L44.05,54.41l.007.016,1.951-.86L48.014,54.6l.016-.034L90,74.993l-.094.192v3.521l-.024.023v40.258l.024-.02v.453l26.374,13.994,40.572-18.026V90.495L114.823,69.442l.111-.087h-.38V22.814h.057V20.1l3.468-1.393v.139L158.6.844l.007.016L160.562,0l2.006,1.035L162.584,1l41.968,20.426-.094.192V25.14l-.024.023V65.421l.024-.02v4.585l-1.669.719-39.9,20.286.014.031-.771.413v23.935l39.57,19.259,22.994-12.2V79.015h.057V76.3l3.468-1.393v.139l40.525-18.005.007.016,1.951-.86,2.005,1.035.017-.034L314.7,77.628l-.094.192V81.34l-.024.023v40.258l.024-.02v4.585l-1.67.719-39.9,20.286.015.031-2.435,1.3-1.634-.851-.007.014-41.5-20.788L204.434,139.13v40.983l24.676,13.093,39.641-17.613.007.016,1.951-.86,2.005,1.035.017-.034L314.7,196.176l-.094.192v3.521l-.024.023V240.17l.024-.02v4.585l-1.67.719-39.9,20.286.015.031-2.435,1.3-1.634-.85-.007.014-44.01-22.046.111-.087h-.38V197.563h.057v-.676l-23.185-12.3-39.436,20.052v35.028l.43.222.016-.034,41.968,20.426-.094.192v3.521l-.024.023v40.258l.024-.02v4.585l-1.669.719-39.9,20.286.014.031-2.434,1.3Zm3.3-45.76v39.777l37.01-18.818V265.747Zm-42.3,20.064,37.009,18.791V283.7L119.841,264.88Zm3.909-43.7,36,18.305h1.3l34.393-17.488-34.524-16.8h-1.193ZM272.286,220.46v39.778l37.01-18.818V201.642Zm-222.94,0v39.778l37.01-18.818V201.642ZM229.99,240.524,267,259.315V219.594L229.99,200.777Zm-222.94,0,37.009,18.791V219.594L7.05,200.777ZM233.9,196.82l36,18.305h1.3L305.6,197.637,270.5,180.556Zm-222.94,0,36,18.305h1.305l34.393-17.488L47.564,180.556Zm108.883-59.246V180.8l38.8,19.728,40.506-20.6V139.275l-39.674-19.31Zm152.445-35.662v39.778l37.01-18.818V83.1Zm-42.3,20.064L267,140.767V101.046L229.99,82.229ZM47.584,99.278v39.778l37.01-18.818V80.46Zm-42.3,20.064L42.3,138.133V98.411L5.287,79.594ZM233.9,78.272l36,18.305h1.3L305.6,79.089,270.5,62.008ZM9.2,75.638l36,18.305h1.3L80.9,76.455,45.8,59.374ZM162.138,45.712V85.49l37.01-18.818V26.895Zm-42.3,20.064L156.85,84.567V44.845L119.841,26.028Zm41.215-25.4,34.393-17.488L160.356,5.808,123.75,22.072l36,18.305Zm-17.8,139.108v-37.1h17.383q6.572,0,10.123,2.57a8.26,8.26,0,0,1,3.551,7.076,9.3,9.3,0,0,1-1.273,4.876,8.715,8.715,0,0,1-3.5,3.286,9.785,9.785,0,0,1,4.875,3.365,9.363,9.363,0,0,1,1.8,5.856,8.581,8.581,0,0,1-3.711,7.447q-3.71,2.624-10.812,2.623Zm6.889-5.405h11.13q8,0,8-5.353t-8-5.353h-11.13Zm0-16.06H159.9a9.912,9.912,0,0,0,5.539-1.3,4.275,4.275,0,0,0,1.934-3.789,4.328,4.328,0,0,0-1.934-3.843,9.92,9.92,0,0,0-5.539-1.3h-9.752Z" transform="translate(812 114)" fill="url(#linear-gradient)"/>
  </g>
</svg>
