<svg xmlns="http://www.w3.org/2000/svg" xmlns:xlink="http://www.w3.org/1999/xlink" width="411" height="411" viewBox="0 0 411 411">
  <defs>
    <linearGradient id="linear-gradient" x1="0.024" y1="0.041" x2="0.984" y2="0.967" gradientUnits="objectBoundingBox">
      <stop offset="0" stop-color="#ff9800"/>
      <stop offset="1" stop-color="#ff5785"/>
    </linearGradient>
  </defs>
  <g id="ComputerVision" transform="translate(-196 -669)">
    <g id="Rectangle_43" data-name="Rectangle 43" transform="translate(196 669)" fill="#fff" stroke="#707070" stroke-width="1" opacity="0">
      <rect width="411" height="411" stroke="none"/>
      <rect x="0.5" y="0.5" width="410" height="410" fill="none"/>
    </g>
    <g id="ComputerVision-2" data-name="ComputerVision" transform="translate(-409 582)">
      <path id="Union_2" data-name="Union 2" d="M188.356,329.623H78.482a7.848,7.848,0,1,1,0-15.7H180.508v-15.7H31.393C14.08,298.23,0,283.523,0,265.449V32.782C0,14.708,14.08,0,31.393,0H345.319c17.313,0,31.393,14.708,31.393,32.782V265.449c0,18.075-14.08,32.782-31.393,32.782H196.2v15.7H298.23a7.848,7.848,0,1,1,0,15.7ZM15.7,265.449c0,9.418,7.04,17.086,15.7,17.086H345.319c8.657,0,15.7-7.668,15.7-17.086V234.434H15.7Zm0-232.667v188.21h345.32V32.782c0-9.418-7.04-17.086-15.7-17.086H31.393C22.736,15.7,15.7,23.364,15.7,32.782Zm156.3,225.951c0-8.281,7.407-14.993,16.545-14.993s16.544,6.712,16.544,14.993-7.407,14.993-16.544,14.993S171.994,267.014,171.994,258.733Zm-10.076-99.789a117.279,117.279,0,0,1-22.237-12.871,154.06,154.06,0,0,1-21.443-18.722l0-.006a159.126,159.126,0,0,1,21.44-19.861,115.791,115.791,0,0,1,22.237-13.659c9.052-4.119,17.751-6.208,25.855-6.208s16.884,2.089,26.095,6.208a121.877,121.877,0,0,1,22.763,13.659,166.582,166.582,0,0,1,22.207,19.868l0,.007a165.549,165.549,0,0,1-22.2,18.715,123.611,123.611,0,0,1-22.763,12.871c-9.211,3.883-17.989,5.851-26.095,5.851S170.969,162.826,161.918,158.944Zm.77-32.564a25.333,25.333,0,1,0,25.333-25.333A25.362,25.362,0,0,0,162.688,126.38Z" transform="translate(621.663 127.277)" fill="url(#linear-gradient)"/>
    </g>
  </g>
</svg>
