<svg xmlns="http://www.w3.org/2000/svg" xmlns:xlink="http://www.w3.org/1999/xlink" width="411" height="411" viewBox="0 0 411 411">
  <defs>
    <linearGradient id="linear-gradient" x1="0.024" y1="0.041" x2="0.984" y2="0.967" gradientUnits="objectBoundingBox">
      <stop offset="0" stop-color="#ff9800"/>
      <stop offset="1" stop-color="#ff5785"/>
    </linearGradient>
  </defs>
  <g id="FinTecg" transform="translate(-1296.633 -86.328)">
    <g id="Rectangle_44" data-name="Rectangle 44" transform="translate(1296.633 86.328)" fill="#fff" stroke="#707070" stroke-width="1" opacity="0">
      <rect width="411" height="411" stroke="none"/>
      <rect x="0.5" y="0.5" width="410" height="410" fill="none"/>
    </g>
    <path id="Union_3" data-name="Union 3" d="M16.588,331.077C7.439,331.077,0,314.75,0,294.684V36.392C0,16.327,7.439,0,16.588,0H182.469c9.148,0,16.588,16.327,16.588,36.392V294.684c0,20.066-7.44,36.392-16.588,36.392Zm-4.38-288.9V294.684c0,10.455-.194,18.967,4.38,18.967H182.469c4.574,0,4.637-12.533,4.637-22.988V42.176c0-10.455-7.331-24.751-11.905-24.751H20.713C16.139,17.425,12.208,31.721,12.208,42.176Zm62.86,182.033a64.223,64.223,0,1,1,24.967,5.052A63.91,63.91,0,0,1,75.067,224.209ZM47.346,164.978a52.688,52.688,0,1,0,52.688-52.8A52.805,52.805,0,0,0,47.346,164.978Zm48.833,36.029V192.46a43.131,43.131,0,0,1-10.78-2.079,23.475,23.475,0,0,1-8.086-4.312l3.465-7.777a25.555,25.555,0,0,0,6.93,3.889,30.829,30.829,0,0,0,8.471,1.963v-15.4a56.682,56.682,0,0,1-9.125-2.887,15.818,15.818,0,0,1-6.121-4.62,12.39,12.39,0,0,1-2.464-8.047,14.23,14.23,0,0,1,4.543-10.626q4.543-4.389,13.167-5.235v-8.7h6.313v8.547a36.07,36.07,0,0,1,8.431,1.462,27.715,27.715,0,0,1,7.2,3.234l-3.157,7.778a32.029,32.029,0,0,0-12.474-4.158v15.554a59.2,59.2,0,0,1,9.2,2.848,15.793,15.793,0,0,1,6.16,4.582,12.262,12.262,0,0,1,2.5,8.046,14.05,14.05,0,0,1-4.582,10.588q-4.581,4.351-13.282,5.275v8.624Zm6.313-17.017a11.474,11.474,0,0,0,6.044-2.387,5.672,5.672,0,0,0,1.964-4.389,5.007,5.007,0,0,0-2.079-4.2,17.807,17.807,0,0,0-5.929-2.657Zm-12.166-35.8a6.051,6.051,0,0,0-1.925,4.543,4.9,4.9,0,0,0,2,4.081,17.364,17.364,0,0,0,5.775,2.618V145.721A10.67,10.67,0,0,0,90.327,148.185Z" transform="translate(1402.663 126.277)" fill="url(#linear-gradient)"/>
  </g>
</svg>
