<svg xmlns="http://www.w3.org/2000/svg" xmlns:xlink="http://www.w3.org/1999/xlink" width="2395.225" height="1996.192" viewBox="0 0 2395.225 1996.192">
  <defs>
    <linearGradient id="linear-gradient" x1="1" x2="0.092" y2="1" gradientUnits="objectBoundingBox">
      <stop offset="0" stop-color="#ff9800"/>
      <stop offset="0.544" stop-color="#ff7e00"/>
      <stop offset="1" stop-color="#ff4600"/>
    </linearGradient>
  </defs>
  <g id="LogoMain" transform="translate(-36.662 -152.252)">
    <path id="Union_1" data-name="Union 1" d="M202.542,1996.192l271.564-522.011A936.738,936.738,0,0,1,365.12,1190.031c-5.567-27.061-9.979-54.677-13.147-82.261H117.539L0,891.235H351.946c3.169-27.66,7.591-55.359,13.174-82.5A938.108,938.108,0,0,1,508.235,470.48a950.963,950.963,0,0,1,597-397.855c31.046-6.317,62.819-11.141,94.437-14.333a970.684,970.684,0,0,1,194.494,0c31.618,3.192,63.391,8.016,94.437,14.333a951.148,951.148,0,0,1,451.912,230.249L2080.263,0h314.961L2120.37,525.672a936.492,936.492,0,0,1,122.765,376.99,955.334,955.334,0,0,1,0,193.44,937.709,937.709,0,0,1-157.527,432.183,950.96,950.96,0,0,1-597,397.854c-31.046,6.318-62.819,11.141-94.437,14.333a970.259,970.259,0,0,1-194.494,0c-31.618-3.192-63.391-8.016-94.437-14.333a951.048,951.048,0,0,1-449.076-227.663L517.5,1996.192Zm1021.013-139.434,345.583-748.989H931.283l-235.62,505.894C834.414,1749.59,1018.856,1839.088,1223.555,1856.759Zm204.231-6.487c413.728-62.592,731.872-420.324,731.872-850.887a854.957,854.957,0,0,0-88.448-379.691ZM524.54,1377.237,664.724,1107.77H443.794A853.215,853.215,0,0,0,524.54,1377.237Zm507.6-486h636.914l233.034-505.06c-137.147-134.831-319.139-224.2-521.321-243.469Zm-254.763,0,385.945-741.88c-375.936,59.374-671.762,362.578-719.553,741.88Z" transform="translate(36.662 152.252)" fill="url(#linear-gradient)"/>
  </g>
</svg>
