<svg xmlns="http://www.w3.org/2000/svg" xmlns:xlink="http://www.w3.org/1999/xlink" width="411" height="411" viewBox="0 0 411 411">
  <defs>
    <linearGradient id="linear-gradient" x1="0.253" y1="0.132" x2="0.856" y2="0.741" gradientUnits="objectBoundingBox">
      <stop offset="0" stop-color="#ff9800"/>
      <stop offset="1" stop-color="#ff5785"/>
    </linearGradient>
  </defs>
  <g id="VR" transform="translate(-196 -669)">
    <g id="Rectangle_43" data-name="Rectangle 43" transform="translate(196 669)" fill="#fff" stroke="#707070" stroke-width="1" opacity="0">
      <rect width="411" height="411" stroke="none"/>
      <rect x="0.5" y="0.5" width="410" height="410" fill="none"/>
    </g>
    <g id="VR-2" data-name="VR" transform="translate(212.645 684.329)">
      <g id="Group_58" data-name="Group 58" transform="translate(24.087 24.227)">
        <g id="Group_57" data-name="Group 57" transform="translate(0 0)">
          <g id="Group_56" data-name="Group 56">
            <path id="Path_29" data-name="Path 29" d="M298.489,82.642a136.684,136.684,0,0,0-10.674-20.981A135.269,135.269,0,0,0,243,17.24C224.2,5.769,203.783.846,182.3.15c-20.991-.7-41.154,2.552-59.979,12.085A132.85,132.85,0,0,0,65.8,66.385a137.8,137.8,0,0,0-7.831,16.292,43.587,43.587,0,0,0-27.021,24.144A35.4,35.4,0,0,0,.079,141.887V157.4a35.427,35.427,0,0,0,31.729,35.2,43.527,43.527,0,0,0,28.238,22.89c1.652,5.917,3.439,11.749,5.461,17.324,12.132,33.342,35.671,58.051,53.272,72.91,14.71,12.424,26.645,21.468,46.287,24.691a78.977,78.977,0,0,0,12.716,1.083c16.383,0,29.223-5.84,43.432-14.954,30.623-19.624,54.632-48.227,67.591-80.536,2.635-6.58,4.936-13.414,7.014-20.327a43.453,43.453,0,0,0,33.495-42.215v-49.3a43.477,43.477,0,0,0-30.825-41.532Zm-167.9-54.064c16.055-8.126,33.273-10.674,51.113-10.12,18.286.6,35.693,4.623,51.755,14.429a117.1,117.1,0,0,1,38.8,38.449c1.929,3.106,3.675,6.252,5.282,9.428H78.916c.9-1.794,1.83-3.587,2.832-5.37a114.879,114.879,0,0,1,48.839-46.816ZM18.4,157.4V141.887a17.009,17.009,0,0,1,8.906-14.9v45.321A17.014,17.014,0,0,1,18.4,157.4ZM211.329,301.13c-14.746,9.459-26.025,14.043-43.3,11.214-15.081-2.471-24.2-9.435-37.432-20.612-15.908-13.423-37.126-35.628-47.877-65.178-1.144-3.146-2.212-6.387-3.234-9.675h65.074a9.139,9.139,0,0,0,6.707-2.924L178.283,184.9l27.05,29.051a9.134,9.134,0,0,0,6.7,2.924H276.3c-1.4,4.178-2.891,8.3-4.5,12.319-11.553,28.8-33.033,54.344-60.476,71.933Zm99.659-127.658a25.116,25.116,0,0,1-25.09,25.081H216.02l-31.03-33.331a9.459,9.459,0,0,0-13.414,0l-31.01,33.331H70.714a25.108,25.108,0,0,1-25.092-25.085V124.174A25.117,25.117,0,0,1,70.714,99.082H285.9a25.122,25.122,0,0,1,25.093,25.092v49.3Z" transform="translate(-0.079 -0.058)" fill="url(#linear-gradient)"/>
            <path id="Path_30" data-name="Path 30" d="M96.9,34.274a9.166,9.166,0,0,0-12.952,0L59.33,58.911A9.158,9.158,0,0,0,72.279,71.864L96.9,47.227a9.15,9.15,0,0,0,0-12.952Z" transform="translate(149.565 83.374)" fill="url(#linear-gradient)"/>
            <path id="Path_31" data-name="Path 31" d="M112.79,34.422,64.545,82.667A9.158,9.158,0,1,0,77.494,95.619l48.245-48.245a9.158,9.158,0,1,0-12.949-12.952Z" transform="translate(163.362 83.741)" fill="url(#linear-gradient)"/>
            <path id="Path_32" data-name="Path 32" d="M59.505,34.274a9.166,9.166,0,0,0-12.952,0L21.924,58.911A9.16,9.16,0,1,0,34.88,71.864L59.5,47.227a9.15,9.15,0,0,0,0-12.952Z" transform="translate(50.625 83.374)" fill="url(#linear-gradient)"/>
            <path id="Path_33" data-name="Path 33" d="M75.381,34.422,27.142,82.666A9.16,9.16,0,1,0,40.1,95.619L88.337,47.374A9.16,9.16,0,0,0,75.381,34.422Z" transform="translate(64.421 83.741)" fill="url(#linear-gradient)"/>
            <path id="Path_34" data-name="Path 34" d="M104.731,66.308c-25.435,5.917-55.138.868-55.437.813a9.158,9.158,0,1,0-3.161,18.042A191.184,191.184,0,0,0,76.41,87.514a145.633,145.633,0,0,0,32.474-3.361,9.161,9.161,0,1,0-4.152-17.845Z" transform="translate(101.735 174.562)" fill="url(#linear-gradient)"/>
            <path id="Path_35" data-name="Path 35" d="M54.333,81.887a9.155,9.155,0,0,0,4.335-1.1c9.6-5.176,14.7-8.352,14.91-8.487a9.159,9.159,0,0,0-9.7-15.537c-.044.029-4.885,3.04-13.893,7.9a9.161,9.161,0,0,0,4.353,17.225Z" transform="translate(119.19 146.278)" fill="url(#linear-gradient)"/>
          </g>
        </g>
      </g>
    </g>
  </g>
</svg>
